<?xml version="1.0" standalone="no"?>
<!DOCTYPE svg PUBLIC "-//W3C//DTD SVG 1.1//EN" "http://www.w3.org/Graphics/SVG/1.1/DTD/svg11.dtd" >
<svg xmlns="http://www.w3.org/2000/svg" xmlns:xlink="http://www.w3.org/1999/xlink" version="1.1">
<metadata>
Created by FontForge 20200427 at Wed Apr 24 19:33:36 1996
 By www
Agfa Division of Bayer Corporation. Digital data is the property of Agfa Division. Copyright (c) 1995. All rights reserved.
</metadata>
<defs>
<font id="SnapITC" horiz-adv-x="1024" >
  <font-face 
    font-family="Snap ITC"
    font-weight="400"
    font-stretch="normal"
    units-per-em="2048"
    panose-1="4 9 8 5 7 6 1 1 2 4"
    ascent="1638"
    descent="-410"
    x-height="1057"
    cap-height="1473"
    bbox="-539 -567 2884 2091"
    underline-thickness="383"
    underline-position="-480"
    unicode-range="U+0020-F004"
  />
<missing-glyph 
d="M128 0v1569h768v-1569h-768zM256 128h512v1313h-512v-1313z" />
    <glyph glyph-name=".notdef" 
d="M128 0v1569h768v-1569h-768zM256 128h512v1313h-512v-1313z" />
    <glyph glyph-name="glyph1" horiz-adv-x="0" 
 />
    <glyph glyph-name="glyph2" horiz-adv-x="598" 
 />
    <glyph glyph-name="space" unicode=" " horiz-adv-x="598" 
 />
    <glyph glyph-name="exclam" unicode="!" horiz-adv-x="1212" 
d="M1327 1456l-369 -76l-178 -848l224 -118l-793 -29l160 156l-78 815l-285 155zM977 143q0 -155 -395 -155q-177 0 -286 47q-103 44 -103 108q0 70 100 115q107 47 289 47q185 0 293 -48q102 -45 102 -114z" />
    <glyph glyph-name="quotedbl" unicode="&#x22;" horiz-adv-x="1014" 
d="M426 854l-260 25l-107 551l426 63zM893 854l-260 25l-107 551l428 63z" />
    <glyph glyph-name="numbersign" unicode="#" horiz-adv-x="1849" 
d="M1804 774l-84 123l-290 2l-3 -389l222 -10l106 174l-8 -510l-102 174l-218 -6l-2 -199l193 -129l-782 41l180 82l24 195l-383 -9l-30 -178l188 -160l-647 23l178 88l8 219l-223 -4l-94 -201l76 578l39 -113l213 -10l16 352l-182 2l-158 -164l70 590l157 -229l121 6
l10 238l-206 98l794 18l-156 -112l-38 -221l352 16l29 225l-138 135l598 -16l-200 -84l-4 -244l229 11l102 204zM1114 901l-358 4l-62 -362l373 -19z" />
    <glyph glyph-name="dollar" unicode="$" horiz-adv-x="1634" 
d="M1241 1452l166 -528q-263 241 -422 241q-113 0 -113 -104q0 -89 92 -140q78 -45 267 -81q211 -42 303 -112q100 -76 100 -216q0 -223 -184 -365q-190 -145 -524 -161l43 -152l157 -86l-653 -49l176 123l47 176q-240 36 -471 195v-228l-164 520q245 -198 447 -198
q103 0 161 46t58 124q0 101 -79 149q-58 36 -230 74q-219 48 -314 124q-104 82 -104 226q0 186 155 310q159 126 408 126q45 0 137 -10l-22 156l-211 145l729 -45l-205 -96l-76 -211q136 -52 289 -154z" />
    <glyph glyph-name="percent" unicode="%" horiz-adv-x="1661" 
d="M1386 883q87 0 139 -75t52 -212q0 -244 -182 -461q-118 -139 -244 -139q-83 0 -134.5 71t-51.5 193q0 280 176 488q115 135 245 135zM1343 324q-1 0 -7 1t-9 1q-66 0 -113 -45.5t-47 -108.5q0 -16 2 -27q174 43 174 174v5zM1620 1399l-287 -74l-676 -1233l150 -123
l-809 131l293 84l762 1159l-199 152zM530 1479q88 0 139 -76q54 -80 54 -227q0 -240 -178 -451q-123 -145 -248 -145q-85 0 -139 72.5t-54 197.5q0 270 183 487q118 142 243 142zM485 1300q-151 -45 -151 -172q0 -3 1 -9t1 -9q69 0 112.5 42.5t43.5 109.5q0 17 -7 38z" />
    <glyph glyph-name="ampersand" unicode="&#x26;" horiz-adv-x="1651" 
d="M1618 901l-256 -123q250 -131 250 -325q0 -198 -203 -326q-240 -152 -575 -152q-369 0 -581 134q-208 130 -208 348q0 145 106 244.5t300 129.5q-163 26 -256 114q-91 84 -91 202q0 161 158 259q162 101 443 101q330 0 552 -176l228 119l-371 -442q-78 309 -338 309
q-203 0 -203 -180q0 -219 168 -219q21 0 31 2l66 182l133 -547l-144 156q-182 -58 -182 -242q0 -225 248 -225q155 0 255.5 80.5t100.5 201.5q0 170 -186 320z" />
    <glyph glyph-name="quotesingle" unicode="'" horiz-adv-x="547" 
d="M426 854l-260 25l-107 551l426 63z" />
    <glyph glyph-name="parenleft" unicode="(" horiz-adv-x="887" 
d="M156 1614l716 39q-254 -466 -254 -985q0 -545 246 -944l-745 26l272 117q-272 296 -272 719q0 476 352 907z" />
    <glyph glyph-name="parenright" unicode=")" horiz-adv-x="887" 
d="M768 1606l-272 -119q272 -297 272 -719q0 -476 -352 -907l315 -121l-717 -39q254 466 254 985q0 543 -245 944z" />
    <glyph glyph-name="asterisk" unicode="*" horiz-adv-x="1151" 
d="M993 1264l-344 -136l342 -41l-184 -315l-205 297l2 -364l-287 151l162 168l-315 -10l69 278l295 -129l-198 287l311 96l-10 -260l174 187z" />
    <glyph glyph-name="plus" unicode="+" horiz-adv-x="1706" 
d="M735 1221h238v-494h479v-231h-479v-496h-238v496h-481v231h481v494z" />
    <glyph glyph-name="comma" unicode="," horiz-adv-x="825" 
d="M229 -479l125 485q-107 18 -169 64q-58 44 -58 98q0 64 79 113q83 51 206 51q122 0 206 -52q78 -49 78 -112q0 -50 -57 -123z" />
    <glyph glyph-name="hyphen" unicode="-" horiz-adv-x="780" 
d="M711 860l-27 -307l-551 -107l-63 426z" />
    <glyph glyph-name="period" unicode="." horiz-adv-x="825" 
d="M696 170q0 -63 -79 -114q-85 -54 -205 -54q-121 0 -206 53q-79 51 -79 115q0 63 79 111q83 51 206 51t206 -52q78 -48 78 -110z" />
    <glyph glyph-name="slash" unicode="/" horiz-adv-x="1108" 
d="M1067 1524l-940 -1760l-96 99l815 1835z" />
    <glyph glyph-name="zero" unicode="0" horiz-adv-x="1726" 
d="M1673 702q0 -200 -102 -358q-113 -174 -317 -278.5t-439 -104.5q-239 0 -424 123q-159 106 -247.5 268.5t-88.5 349.5q0 294 213 504q270 267 662 267q308 0 514 -203q106 -105 167.5 -256.5t61.5 -311.5zM913 1229q-59 -91 -59 -189q0 -89 69 -155t162 -66
q73 0 139.5 40t94.5 102q-148 258 -406 268z" />
    <glyph glyph-name="one" unicode="1" horiz-adv-x="1012" 
d="M961 -20l-967 45l276 116l-34 957l-316 26l1024 379l-239 -1351z" />
    <glyph glyph-name="two" unicode="2" horiz-adv-x="1536" 
d="M1516 756l-113 -705l-1489 -92l694 862q135 168 135 271q0 127 -133 127q-225 0 -422 -388l-221 590l197 -213q330 279 670 279q260 0 414.5 -116.5t154.5 -309.5q0 -163 -94 -281q-80 -99 -275 -219l-561 -344l889 229z" />
    <glyph glyph-name="three" unicode="3" horiz-adv-x="1651" 
d="M76 1438l133 -146q372 203 727 203q248 0 404 -99q149 -94 149 -235q0 -103 -98 -190q-103 -92 -287 -140q18 3 55 3q202 0 333 -109q128 -106 128 -258q0 -223 -199 -360q-205 -140 -553 -140q-389 0 -671 129v-131l-232 572q345 -330 688 -330q133 0 213 70t80 184
q0 170 -162 170q-85 0 -161 -62l-41 -172l-144 494l129 -90q189 41 273 104q88 67 88 178q0 168 -191 168q-274 0 -491 -387z" />
    <glyph glyph-name="four" unicode="4" horiz-adv-x="1774" 
d="M1726 1075l-10 -786l-84 264l-295 -72l80 -377l195 -96l-928 -43l170 162l47 315l-938 -63l766 1028l907 74l-161 -99l-119 -596l291 121zM926 774l-11 359l-383 -453z" />
    <glyph glyph-name="five" unicode="5" horiz-adv-x="1696" 
d="M524 1208l-135 -297q123 52 361 52q419 0 652 -137q226 -133 226 -365q0 -222 -204 -358q-211 -140 -570 -140q-382 0 -657 230l-136 -115l140 510q210 -320 456 -320q117 0 182.5 55t65.5 150q0 121 -89 187.5t-255 66.5q-287 0 -495 -115l167 869l1141 -76l53 106
l70 -628l-96 145z" />
    <glyph glyph-name="six" unicode="6" horiz-adv-x="1722" 
d="M1577 1497l-279 -383q-172 154 -376 154q-158 0 -268.5 -105.5t-110.5 -253.5q0 -82 45 -139q178 184 475 184q279 0 451 -123q167 -120 167 -307q0 -161 -145 -299q-277 -262 -682 -262q-373 0 -590 217q-205 205 -205 502q0 311 248 553q265 258 574 258
q213 0 462 -125zM666 508q72 -64 168 -64q92 0 156.5 63t64.5 146q0 62 -56 105q-243 -85 -333 -250z" />
    <glyph glyph-name="seven" unicode="7" horiz-adv-x="1589" 
d="M1597 1481l-510 -1387l189 -141l-1118 61l260 97l684 1019l-776 -262l-78 -309l-217 916l155 -144z" />
    <glyph glyph-name="eight" unicode="8" horiz-adv-x="1741" 
d="M1161 965q246 -38 390 -168q139 -126 139 -297q0 -233 -228 -379q-234 -150 -624 -150q-368 0 -579 137q-208 133 -208 359q0 167 136 298q140 137 382 189q-233 96 -233 248q0 123 145 212q152 93 377 93q235 0 383 -89q141 -84 141 -210q0 -141 -221 -243zM530 1223
q51 -84 144 -84q66 0 118 47.5t52 105.5q0 35 -31 66q-178 -22 -283 -135zM1118 791q-55 -59 -55 -129q0 -80 67 -137.5t160 -57.5q80 0 146 78q-119 181 -318 246z" />
    <glyph glyph-name="nine" unicode="9" horiz-adv-x="1700" 
d="M307 -37l-174 483q273 -229 574 -229q202 0 337 111q132 108 132 262l-5 69q-299 -170 -591 -170q-245 0 -400 126q-151 122 -151 311q0 188 151 336q242 235 633 235q379 0 633 -250q199 -196 199 -465q0 -326 -244 -567q-249 -246 -592 -246q-262 0 -494 162zM1137 901
q-72 113 -191 113q-91 0 -155 -54.5t-64 -130.5q0 -50 31 -84q263 16 379 156z" />
    <glyph glyph-name="colon" unicode=":" horiz-adv-x="825" 
d="M696 688q0 -63 -78 -114q-85 -54 -206 -54q-123 0 -206 53q-79 50 -79 115q0 63 79 112q83 52 206 52q122 0 206 -52q78 -49 78 -112zM696 170q0 -63 -79 -114q-85 -54 -205 -54q-121 0 -206 53q-79 51 -79 115q0 63 79 111q83 51 206 51t206 -52q78 -48 78 -110z" />
    <glyph glyph-name="semicolon" unicode=";" horiz-adv-x="825" 
d="M696 688q0 -63 -78 -114q-85 -54 -206 -54q-123 0 -206 53q-79 50 -79 115q0 63 79 112q83 52 206 52q122 0 206 -52q78 -49 78 -112zM229 -479l125 485q-107 18 -169 64q-58 44 -58 98q0 64 79 113q83 51 206 51q122 0 206 -52q78 -49 78 -112q0 -50 -57 -123z" />
    <glyph glyph-name="less" unicode="&#x3c;" 
d="M954 1329v-362l-499 -277l499 -274v-363l-886 486v307z" />
    <glyph glyph-name="equal" unicode="=" horiz-adv-x="1706" 
d="M254 950h1198v-231h-1198v231zM254 502h1198v-230h-1198v230z" />
    <glyph glyph-name="greater" unicode="&#x3e;" 
d="M68 53v365l501 274l-499 277l-2 360l886 -485v-305z" />
    <glyph glyph-name="question" unicode="?" horiz-adv-x="1737" 
d="M23 1446l157 -98q354 165 715 165q423 0 647 -215q109 -104 109 -239q0 -182 -147 -290q-150 -110 -423 -118l-73 -190l221 -123l-805 78l156 84l-64 288q304 24 431 86q138 67 138 207q0 211 -235 211q-308 0 -594 -452zM1180 143q0 -61 -107 -107q-114 -48 -291 -48
q-165 0 -281 51q-106 48 -106 104q0 62 103 110q113 52 284 52q175 0 291 -52q107 -48 107 -110z" />
    <glyph glyph-name="at" unicode="@" horiz-adv-x="1935" 
d="M1786 -78l-125 123q-329 -117 -625 -117q-460 0 -735 236q-262 225 -262 561q0 365 270 584q275 223 744 223q394 0 626 -174q226 -169 226 -443q0 -272 -175.5 -416.5t-539.5 -176.5l57 223q-145 -219 -336 -219q-139 0 -227 104.5t-88 276.5q0 184 91 303
q90 116 222 116q206 0 338 -211l-45 211l311 -28l-104 -47l27 -551q213 91 213 377q0 436 -588 436q-296 0 -457.5 -151.5t-161.5 -428.5q0 -301 165.5 -468t463.5 -167q293 0 631 197zM1036 905q-28 -25 -28 -69q0 -53 31.5 -86t80.5 -33q35 0 60 24q-46 117 -144 164z" />
    <glyph glyph-name="A" unicode="A" horiz-adv-x="1741" 
d="M1845 217l-872 -270l223 299l-63 221l-324 -25l-94 -258l141 -110l-948 -68l231 172l307 1194l-174 113l1176 -39l-274 -98l481 -1074zM1038 791l-139 399l-135 -492z" />
    <glyph glyph-name="B" unicode="B" horiz-adv-x="1591" 
d="M1087 860q459 -28 459 -338q0 -217 -176 -328q-169 -107 -553 -147l-883 -92l416 195l-200 1210l-287 131l1022 -53q283 -15 400 -70q128 -59 128 -194q0 -216 -326 -314zM647 979q117 13 187 55q63 38 63 82q0 143 -276 150zM575 303q302 178 302 295q0 37 -30 62.5
t-77 25.5q-66 0 -156 -33z" />
    <glyph glyph-name="C" unicode="C" horiz-adv-x="1610" 
d="M1569 727l-107 -694l-41 284q-296 -352 -684 -352q-259 0 -456 201q-234 237 -234 545q0 428 334 651q211 141 498 141q260 0 456 -166l58 166l102 -547q-136 195 -350 195q-120 0 -193 -70.5t-73 -185.5q0 -121 90.5 -204t228.5 -83q164 0 371 119z" />
    <glyph glyph-name="D" unicode="D" horiz-adv-x="1587" 
d="M164 1321l-273 182l1037 -110q285 -31 448.5 -201.5t163.5 -435.5q0 -329 -232.5 -520.5t-674.5 -221.5l-742 -49l431 160zM582 489q280 152 280 394q0 206 -196 344z" />
    <glyph glyph-name="E" unicode="E" horiz-adv-x="1661" 
d="M1626 616l-90 -661l-1647 72l433 151l-154 1098l-279 108l1567 107l98 -459l-163 168l-482 -2l-73 -305l344 80l102 157l39 -692l-109 172l-305 41l-121 -325l574 -72z" />
    <glyph glyph-name="F" unicode="F" horiz-adv-x="1546" 
d="M1577 766l-229 391l-594 -41l71 -328l254 109l107 150l190 -838l-213 295l-358 20l113 -442l202 -133l-1190 84l226 149l123 1002l-349 166l1520 143z" />
    <glyph glyph-name="G" unicode="G" horiz-adv-x="1804" 
d="M1774 860l-148 -141l60 -520q-330 -244 -717 -244q-327 0 -582 180q-342 242 -342 625q0 351 309 551q282 182 682 182q303 0 525 -139l49 135l78 -543q-251 299 -545 299q-204 0 -328.5 -135t-124.5 -358q0 -198 115.5 -321.5t298.5 -123.5q-4 0 61 4l88 291l-211 -24
l-65 -123l-27 612l103 -143z" />
    <glyph glyph-name="H" unicode="H" horiz-adv-x="1802" 
d="M1812 1444l-258 -133l80 -1106l174 -109l-1007 -37l155 125l17 371l-283 -43v-438l150 -99l-850 60l139 98l117 1204l-236 72l748 107l-150 -127l49 -467l261 -97l67 527l-127 121z" />
    <glyph glyph-name="I" unicode="I" horiz-adv-x="1108" 
d="M1249 51l-1226 -119l206 154l99 1118l-351 269l1207 -101l-449 -129l203 -995z" />
    <glyph glyph-name="J" unicode="J" horiz-adv-x="1667" 
d="M1677 1513l-452 -260q393 -236 393 -600q0 -300 -245 -489q-251 -193 -664 -193q-314 0 -507 128q-182 121 -182 302q0 286 400 390l-397 59l796 106q-176 -142 -176 -288q0 -82 48 -130.5t128 -48.5q121 0 193.5 89t72.5 247q0 252 -163 422l-510 103z" />
    <glyph glyph-name="K" unicode="K" horiz-adv-x="1708" 
d="M1849 -23l-796 97l159 104l-464 477l-52 -10l109 -532l168 -179l-1006 113l180 133l95 1088l-195 125l805 98l-225 -174l67 -424l353 420l-99 121l733 -27l-520 -418z" />
    <glyph glyph-name="L" unicode="L" horiz-adv-x="1479" 
d="M1466 -88l-131 154l-1351 -74l184 129l49 1139l-272 81l977 107l-256 -186l170 -920l358 182l115 264z" />
    <glyph glyph-name="M" unicode="M" horiz-adv-x="2251" 
d="M2298 20l-1204 43l219 123l192 889l-446 -735l-383 821l153 -1067l322 -149l-1126 100l172 98l114 1123l-225 100l944 115l127 -547l121 487l915 -53l-276 -96l115 -1100z" />
    <glyph glyph-name="N" unicode="N" horiz-adv-x="1929" 
d="M1954 1360l-156 -68l-160 -1171l226 -90l-523 -41l-727 1034l250 -938l264 -145l-1116 104l170 115l72 1102l-242 98l840 119l514 -1119l-90 971l-162 109z" />
    <glyph glyph-name="O" unicode="O" horiz-adv-x="1712" 
d="M1665 707q0 -217 -109 -375q-115 -169 -317.5 -270t-431.5 -101q-242 0 -424 123q-160 108 -248 269.5t-88 348.5q0 292 215 504q270 267 660 267q237 0 409 -117q153 -104 243.5 -279t90.5 -370zM905 1229q-59 -88 -59 -189q0 -90 68.5 -155.5t162.5 -65.5
q73 0 140 39.5t96 102.5q-147 255 -408 268z" />
    <glyph glyph-name="P" unicode="P" horiz-adv-x="1661" 
d="M-23 1358l768 88q179 20 240 20q305 0 473 -153t168 -430q0 -249 -153 -404t-398 -155q-285 0 -452 163l63 -356l328 -199l-1008 95l141 100l146 1094zM578 801q140 60 225 164q78 96 78 188q0 109 -86 109q-57 0 -125 -39z" />
    <glyph glyph-name="Q" unicode="Q" horiz-adv-x="1716" 
d="M1843 -336l-588 410q-224 -111 -464 -111q-225 0 -408 123q-159 107 -247.5 268.5t-88.5 347.5q0 318 248 535q269 236 629 236q310 0 512 -203q229 -231 229 -574q0 -224 -135 -401zM905 1229q-59 -91 -59 -189q0 -89 69 -155t162 -66q73 0 140.5 40.5t95.5 101.5
q-149 258 -408 268z" />
    <glyph glyph-name="R" unicode="R" horiz-adv-x="1679" 
d="M1665 84l-670 -225l80 151l-379 461q-46 5 -98 16l29 -356l225 -199l-846 95l141 100l146 1094l-316 137l768 88q179 20 263 20q618 0 618 -491q0 -406 -532 -502zM610 780q69 -39 135 -39q42 0 74.5 47t32.5 107q0 144 -203 231z" />
    <glyph glyph-name="S" unicode="S" horiz-adv-x="1690" 
d="M1262 1458l170 -536q-285 247 -431 247q-112 0 -112 -108q0 -125 262 -205q273 -83 379 -158q131 -93 131 -241q0 -215 -210 -356q-215 -144 -556 -144q-357 0 -655 240v-240l-179 535q257 -209 463 -209q224 0 224 170q0 87 -67 135q-49 35 -192 80q-473 148 -473 426
q0 174 152 287q156 116 410 116q322 0 645 -242z" />
    <glyph glyph-name="T" unicode="T" horiz-adv-x="1606" 
d="M1638 1493l-485 -948l-63 723l-279 -1108l424 -203l-916 49l295 92l-335 1190l-95 -874l-196 968z" />
    <glyph glyph-name="U" unicode="U" horiz-adv-x="1726" 
d="M1698 1434l-355 -195q330 -226 330 -575q0 -176 -100 -316q-125 -174 -339.5 -279.5t-449.5 -105.5q-294 0 -511.5 219t-217.5 508q0 365 441 647l-414 54l850 114q-309 -235 -309 -491q0 -121 81 -200t201 -79q111 0 184.5 83.5t73.5 209.5q0 174 -141 303z" />
    <glyph glyph-name="V" unicode="V" horiz-adv-x="1606" 
d="M1767 1448l-229 -131l-494 -1219l222 -151l-969 53l195 131l-429 1186l-180 61l1000 107l-150 -127l107 -981l247 930l-120 86z" />
    <glyph glyph-name="W" unicode="W" horiz-adv-x="2154" 
d="M2253 1333l-203 -94l-373 -1100l277 -71l-770 -144l-230 590l-235 -528l-596 32l203 84l-162 1180l-184 86l1042 92l-240 -147l-147 -879l479 699l307 -691l45 850l-206 107z" />
    <glyph glyph-name="X" unicode="X" horiz-adv-x="1765" 
d="M1843 1352l-178 -60l-575 -518l479 -649l205 -96l-838 -107l145 96l-299 519l-198 -443l86 -94l-799 84l137 76l537 631l-309 522l-213 92l876 68l-143 -127l186 -388l203 367l-137 94z" />
    <glyph glyph-name="Y" unicode="Y" horiz-adv-x="1839" 
d="M1978 1333l-219 -110l-626 -705l100 -473l254 -115l-1233 68l240 117l122 448l-534 762l-211 66l1044 82l-178 -115l269 -610l229 532l-176 90z" />
    <glyph glyph-name="Z" unicode="Z" horiz-adv-x="1608" 
d="M1583 1376l-1012 -1102l764 218l221 331l-102 -780l-1524 -109l811 1223l-454 -53l-125 -344l-133 737z" />
    <glyph glyph-name="bracketleft" unicode="[" horiz-adv-x="887" 
d="M985 1645l-348 -148l-100 -1632l444 -115l-772 -29l-88 1897z" />
    <glyph glyph-name="backslash" unicode="\" horiz-adv-x="1108" 
d="M1049 -137l-99 -99l-895 1760l226 174z" />
    <glyph glyph-name="bracketright" unicode="]" horiz-adv-x="887" 
d="M766 -252l-864 -27l348 146l100 1632l-444 117l772 29z" />
    <glyph glyph-name="asciicircum" unicode="^" 
d="M338 698h-322l293 676h406l291 -676h-320l-174 430z" />
    <glyph glyph-name="underscore" unicode="_" 
d="M0 -104h1024v-213h-1024v213z" />
    <glyph glyph-name="grave" unicode="`" 
d="M639 1141l-600 450h424z" />
    <glyph glyph-name="a" unicode="a" horiz-adv-x="1292" 
d="M1280 1030l-147 -67l30 -838l115 -88l-440 -55l75 305q-188 -305 -475 -305q-169 0 -286 139t-117 346q0 266 128 436q125 166 312 166q288 0 438 -301l-63 309zM580 821q-50 -58 -50 -143q0 -88 57.5 -147.5t141.5 -59.5q59 0 127 49q-129 237 -276 301z" />
    <glyph glyph-name="b" unicode="b" horiz-adv-x="1284" 
d="M518 1421l-160 -622q215 258 447 258q182 0 311 -136.5t129 -330.5q0 -240 -182 -396t-500 -182l-563 -45l160 146l-33 1267l-119 68l651 47zM393 528q35 -61 123 -61q78 0 137.5 67.5t59.5 153.5q0 65 -54 131q-188 -99 -266 -291z" />
    <glyph glyph-name="c" unicode="c" horiz-adv-x="1186" 
d="M1169 -29l-110 222q-234 -216 -484 -216q-234 0 -386 138.5t-152 355.5q0 264 172 436q151 152 375 152q215 0 407 -162l41 176l58 -442q-77 86 -187 86q-74 0 -123 -50t-49 -126q0 -75 55.5 -129t131.5 -54q99 0 202 113z" />
    <glyph glyph-name="d" unicode="d" horiz-adv-x="1290" 
d="M1292 1440l-129 -58l-12 -1276l125 -141l-668 43q-258 17 -414.5 158t-156.5 352q0 226 132 378.5t320 152.5q243 0 412 -230l-113 565l-141 109zM573 831q-43 -46 -43 -122q0 -88 63.5 -150.5t147.5 -62.5q68 0 129 55q-105 220 -297 280z" />
    <glyph glyph-name="e" unicode="e" horiz-adv-x="1294" 
d="M1278 -23l-90 166q-261 -166 -541 -166q-279 0 -444.5 138t-165.5 364q0 252 174 426q162 162 418 162q245 0 404 -107q155 -104 155 -262t-142 -266q-146 -110 -368 -110q-106 0 -191 34q183 -125 371 -125q240 0 383 203zM283 690q68 -55 163 -55q80 0 129.5 46
t49.5 118q0 68 -41 116q-215 -33 -301 -225z" />
    <glyph glyph-name="f" unicode="f" horiz-adv-x="1243" 
d="M1282 1499l-235 -399q-50 86 -146 86q-135 0 -135 -244q0 -39 2 -68l272 11l205 174l-84 -565l-174 172l-194 -25q42 -294 116 -539l201 -90l-891 -39l230 168q-77 322 -103 445l-115 -17l-141 -194l-74 635l146 -152l131 4q-21 141 -21 262q0 375 416 375
q198 0 375 -108z" />
    <glyph glyph-name="g" unicode="g" horiz-adv-x="1339" 
d="M1280 1038l-147 -82q139 -463 139 -755q0 -313 -154 -484.5t-430 -171.5q-227 0 -461 111l-143 -117l207 426q180 -205 391 -205q120 0 205.5 98.5t85.5 231.5q0 101 -47 199q-172 -277 -447 -277q-188 0 -315 142.5t-127 355.5q0 246 136 406q133 157 335 157
q223 0 428 -229l-92 229zM608 864q-53 -59 -53 -139q0 -87 58.5 -151t131.5 -64q71 0 140 65q-112 222 -277 289z" />
    <glyph glyph-name="h" unicode="h" horiz-adv-x="1280" 
d="M514 1395l-182 -615q214 279 487 279q181 0 303.5 -122t122.5 -304q0 -254 -237 -535l233 -78l-596 -51q135 132 135 299q0 84 -39 132.5t-104 48.5q-78 0 -133 -66.5t-55 -167.5q0 -107 59 -188l-516 -60l155 131l-18 1286l-133 66l704 45z" />
    <glyph glyph-name="i" unicode="i" horiz-adv-x="924" 
d="M868 1298q0 -66 -98 -110q-106 -47 -281 -47q-174 0 -281 47q-99 45 -99 110q0 66 100 111q107 47 280 47q174 0 280 -47q99 -45 99 -111zM979 12l-1036 -32l223 90l70 852l-273 108l998 37l-320 -113l125 -876z" />
    <glyph glyph-name="j" unicode="j" horiz-adv-x="856" 
d="M682 1300q0 -65 -93 -110q-99 -47 -261 -47q-161 0 -259 47q-92 44 -92 110t92 111q98 47 259 47t261 -47q93 -45 93 -111zM805 1073l-156 -92q168 -477 168 -827q0 -287 -159.5 -447t-444.5 -160q-221 0 -418 82l-145 -90l203 389q129 -164 297 -164q223 0 223 248
q0 363 -273 914l-241 104z" />
    <glyph glyph-name="k" unicode="k" horiz-adv-x="1339" 
d="M1440 141l-531 -211l80 191l-491 395l137 -444l110 -62l-749 -39l151 148l-30 1241l-105 80l801 57l-160 -115l-135 -727l305 342l-61 123l606 -43l-502 -336z" />
    <glyph glyph-name="l" unicode="l" horiz-adv-x="791" 
d="M793 8l-832 -41l229 131l-18 1149l-207 37l785 221l-183 -1415z" />
    <glyph glyph-name="m" unicode="m" horiz-adv-x="1688" 
d="M1626 8l-510 -41q154 163 154 318q0 77 -34.5 124.5t-88.5 47.5q-63 0 -111.5 -62.5t-48.5 -148.5q0 -90 55 -164l-391 22q56 71 56 142q0 81 -37.5 132.5t-91.5 51.5q-60 0 -104 -60.5t-44 -146.5q0 -122 94 -219l-532 -35l168 131l-21 854l-141 60l451 47l-56 -234
q144 232 330 232q84 0 152.5 -72.5t91.5 -191.5q114 260 329 260q138 0 231 -126q95 -129 95 -327q0 -262 -178 -520z" />
    <glyph glyph-name="n" unicode="n" horiz-adv-x="1286" 
d="M1233 18l-559 -36q112 127 112 264q0 92 -43.5 150.5t-107.5 58.5q-74 0 -124 -60.5t-50 -156.5q0 -128 80 -205l-549 -64l125 131l43 822l-164 82l522 57l-121 -244q254 242 471 242q166 0 265.5 -109.5t99.5 -292.5q0 -292 -201 -567z" />
    <glyph glyph-name="o" unicode="o" horiz-adv-x="1233" 
d="M1196 526q0 -162 -83.5 -285.5t-216 -194.5t-280.5 -71q-252 0 -415.5 152t-163.5 383q0 246 166.5 402.5t429.5 156.5q250 0 406.5 -153t156.5 -390zM266 682q59 -74 162 -74q91 0 154 56t63 137q0 63 -41 104q-243 -68 -338 -223z" />
    <glyph glyph-name="p" unicode="p" horiz-adv-x="1282" 
d="M309 188l160 -546l139 -64l-608 -43l90 103l49 1316l-137 64l500 49l-113 -250q198 250 447 250q174 0 291.5 -135.5t117.5 -341.5q0 -291 -182 -477q-137 -140 -332 -140q-228 0 -422 215zM416 532q46 -57 121 -57q78 0 129 59.5t51 151.5q0 79 -51 141
q-195 -126 -250 -295z" />
    <glyph glyph-name="q" unicode="q" horiz-adv-x="1229" 
d="M1264 1018l-150 -47l-162 -1166l224 66l61 92l23 -420l-91 119l-708 -129l352 578q-163 -140 -344 -140q-185 0 -307 139q-125 141 -125 357q0 291 178 473q112 115 262 115q234 0 393 -221l-73 223zM864 528q-114 241 -262 291q-45 -71 -45 -137q0 -89 52.5 -145
t135.5 -56q72 0 119 47z" />
    <glyph glyph-name="r" unicode="r" horiz-adv-x="1208" 
d="M1241 1055l-158 -635q-139 170 -331 170q-125 0 -204 -81t-79 -204q0 -148 158 -291l-641 -34l114 94l56 884l-158 66l506 27l-84 -228q222 232 418 232q167 0 264 -129z" />
    <glyph glyph-name="s" unicode="s" horiz-adv-x="1251" 
d="M1116 1067l-190 -362q-153 137 -287 137q-131 0 -131 -105q0 -65 80 -86q44 -12 233 -24q217 -15 316 -78q104 -67 104 -201q0 -162 -158 -265q-161 -106 -428 -106q-234 0 -495 150l-166 -147l129 403q200 -176 358 -176q140 0 140 125q0 70 -57 99q-41 21 -175 42
q-165 26 -240 84q-79 61 -79 172q0 156 126 249q130 95 353 95q232 0 379 -127z" />
    <glyph glyph-name="t" unicode="t" horiz-adv-x="1255" 
d="M1247 -29l-149 168q-214 -168 -453 -168q-190 0 -304 110t-114 294q0 106 41 327l-116 -14l-107 -182l-37 610l137 -137l191 6q54 198 119 371l-256 98l876 39l-248 -156q-41 -181 -65 -333l229 10l156 192l-25 -565l-141 164l-250 -35q-20 -164 -20 -262
q0 -209 149 -209q158 0 314 174z" />
    <glyph glyph-name="u" unicode="u" horiz-adv-x="1352" 
d="M1300 1063l-249 -135q243 -186 243 -428q0 -191 -139 -328q-204 -201 -530 -201q-250 0 -409 134t-159 337q0 272 244 506l-250 49l580 66q-133 -148 -133 -299q0 -184 151 -184q82 0 135.5 57.5t53.5 148.5q0 110 -86 199z" />
    <glyph glyph-name="v" unicode="v" horiz-adv-x="1479" 
d="M1608 1032l-193 -98l-473 -838l203 -119l-932 29l174 92l-334 828l-155 59l878 86l-168 -110l115 -607l211 543l-115 98z" />
    <glyph glyph-name="w" unicode="w" horiz-adv-x="1985" 
d="M2038 1061l-164 -92l-262 -879l162 -115l-770 35l133 82l-281 289l-141 -221l149 -135l-682 -45l162 114l-254 836l-164 69l910 64l-193 -94l10 -529l365 521l215 -510l127 491l-156 96z" />
    <glyph glyph-name="x" unicode="x" horiz-adv-x="1597" 
d="M1671 997l-203 -67l-383 -340l404 -492l170 -39l-924 -92l135 107l-190 340l-133 -334l102 -92l-717 39l170 57l344 475l-329 356l-174 54l878 88l-125 -117l103 -238l184 246l-115 76z" />
    <glyph glyph-name="y" unicode="y" horiz-adv-x="1358" 
d="M1300 1065l-210 -104q217 -447 217 -730q0 -311 -179 -505q-170 -187 -421 -187q-230 0 -437 107l-178 -111l262 422q183 -217 377 -217q128 0 206.5 82t78.5 219q0 101 -47 199q-153 -238 -439 -238q-207 0 -339 116t-132 296q0 266 248 526l-256 53l604 70
q-141 -168 -141 -326q0 -80 39 -130t98 -50q84 0 138.5 65.5t54.5 172.5q0 137 -62 231z" />
    <glyph glyph-name="z" unicode="z" horiz-adv-x="1247" 
d="M1251 981l-716 -750l512 181l153 241l-53 -590l-1145 -104l528 838l-354 -72l-117 -225l-41 565z" />
    <glyph glyph-name="braceleft" unicode="{" horiz-adv-x="887" 
d="M63 1614l803 39q-264 -240 -264 -559q0 -264 148 -398q-160 -168 -160 -428q0 -335 268 -544l-833 26l292 121q-151 192 -151 414q0 223 149 346l-305 74l297 108q-131 110 -131 289q0 194 207 434z" />
    <glyph glyph-name="bar" unicode="|" 
d="M328 1366h368v-1708h-368v1708z" />
    <glyph glyph-name="braceright" unicode="}" horiz-adv-x="887" 
d="M885 651l-297 -106q131 -110 131 -291q0 -192 -207 -432l322 -78l-805 -41q264 239 264 559q0 263 -148 397q160 169 160 428q0 337 -266 545l831 -24l-292 -123q153 -191 153 -414q0 -222 -151 -346z" />
    <glyph glyph-name="asciitilde" unicode="~" 
d="M190 461l-176 147q116 299 320 299q69 0 198 -55t170 -55q73 0 132 116l174 -147q-108 -299 -322 -299q-69 0 -195.5 54t-171.5 54q-71 0 -129 -114z" />
    <glyph glyph-name="Adieresis" unicode="&#xc4;" horiz-adv-x="1741" 
d="M1845 217l-872 -270l223 299l-63 221l-324 -25l-94 -258l141 -110l-948 -68l231 172l307 1194l-174 113l1176 -39l-274 -98l481 -1074zM1038 791l-139 399l-135 -492zM1436 1771q0 -74 -76 -124q-79 -52 -207 -52q-127 0 -205.5 51t-78.5 125q0 75 77 126q81 54 207 54
t206 -54q77 -51 77 -126zM803 1771q0 -74 -76 -124q-80 -52 -208 -52t-206.5 51t-78.5 125q0 75 79.5 127.5t205.5 52.5t207 -54q77 -52 77 -126z" />
    <glyph glyph-name="Aring" unicode="&#xc5;" horiz-adv-x="1741" 
d="M1845 217l-872 -270l223 299l-63 221l-324 -25l-94 -258l141 -110l-948 -68l231 172l307 1194l-174 113l1176 -39l-274 -98l481 -1074zM1038 791l-139 399l-135 -492zM1265 1812q0 -96 -107 -162q-111 -69 -286 -69q-176 0 -287 69q-106 65 -106 162q0 95 107 161
q111 69 286 69t286 -68q107 -65 107 -162zM1087 1812q0 50 -58 84q-62 37 -157 37q-96 0 -155.5 -35t-59.5 -86t59.5 -87t155.5 -36t157 37q58 35 58 86z" />
    <glyph glyph-name="Ccedilla" unicode="&#xc7;" horiz-adv-x="1610" 
d="M758 -35l-41 -90q47 19 133 19q161 0 260 -64q96 -62 96 -160q0 -100 -92 -163q-95 -64 -258 -64q-170 0 -299 104l-61 -51l63 232q96 -146 203 -146q123 0 123 92q0 117 -162 117q-85 0 -154 -29l72 211q-134 22 -250 101q-160 108 -252 280t-92 357q0 428 334 651
q211 141 498 141q260 0 456 -166l58 166l102 -547q-136 195 -350 195q-120 0 -193 -70.5t-73 -185.5q0 -121 90.5 -204t228.5 -83q164 0 371 119l-107 -694l-41 284q-284 -336 -663 -352z" />
    <glyph glyph-name="Eacute" unicode="&#xc9;" horiz-adv-x="1661" 
d="M1626 616l-90 -661l-1647 72l433 151l-154 1098l-279 108l1567 107l98 -459l-163 168l-482 -2l-73 -305l344 80l102 157l39 -692l-109 172l-305 41l-121 -325l574 -72zM1325 2021l-600 -450l176 450h424z" />
    <glyph glyph-name="Ntilde" unicode="&#xd1;" horiz-adv-x="1929" 
d="M1954 1360l-156 -68l-160 -1171l226 -90l-523 -41l-727 1034l250 -938l264 -145l-1116 104l170 115l72 1102l-242 98l840 119l514 -1119l-90 971l-162 109zM1575 1976q-20 -135 -141 -248q-147 -137 -271 -137q-61 0 -139 74q-75 71 -139 71q-179 0 -287 -147
q61 173 178 282q106 99 205 99q47 0 80 -23q12 -8 55 -53q47 -48 61 -57q37 -25 95 -25q199 0 303 164z" />
    <glyph glyph-name="Odieresis" unicode="&#xd6;" horiz-adv-x="1712" 
d="M1665 707q0 -217 -109 -375q-115 -169 -317.5 -270t-431.5 -101q-242 0 -424 123q-160 108 -248 269.5t-88 348.5q0 292 215 504q270 267 660 267q237 0 409 -117q153 -104 243.5 -279t90.5 -370zM905 1229q-59 -88 -59 -189q0 -90 68.5 -155.5t162.5 -65.5
q73 0 140 39.5t96 102.5q-147 255 -408 268zM1456 1775q0 -74 -76 -124q-79 -52 -207 -52q-127 0 -205.5 51t-78.5 125q0 75 77 126q81 54 207 54t206 -54q77 -51 77 -126zM823 1775q0 -74 -76 -124q-80 -52 -208 -52t-206.5 51t-78.5 125q0 75 79.5 127.5t205.5 52.5
t207 -54q77 -52 77 -126z" />
    <glyph glyph-name="Udieresis" unicode="&#xdc;" horiz-adv-x="1726" 
d="M1698 1434l-355 -195q330 -226 330 -575q0 -176 -100 -316q-125 -174 -339.5 -279.5t-449.5 -105.5q-294 0 -511.5 219t-217.5 508q0 365 441 647l-414 54l850 114q-309 -235 -309 -491q0 -121 81 -200t201 -79q111 0 184.5 83.5t73.5 209.5q0 174 -141 303zM1468 1771
q0 -74 -76 -124q-79 -52 -207 -52q-127 0 -205.5 51t-78.5 125q0 75 77 126q81 54 207 54t206 -54q77 -51 77 -126zM835 1771q0 -74 -76 -124q-80 -52 -208 -52t-206.5 51t-78.5 125q0 75 79.5 127.5t205.5 52.5t207 -54q77 -52 77 -126z" />
    <glyph glyph-name="aacute" unicode="&#xe1;" horiz-adv-x="1292" 
d="M1280 1030l-147 -67l30 -838l115 -88l-440 -55l75 305q-188 -305 -475 -305q-169 0 -286 139t-117 346q0 266 128 436q125 166 312 166q288 0 438 -301l-63 309zM580 821q-50 -58 -50 -143q0 -88 57.5 -147.5t141.5 -59.5q59 0 127 49q-129 237 -276 301zM1071 1591
l-600 -450l176 450h424z" />
    <glyph glyph-name="agrave" unicode="&#xe0;" horiz-adv-x="1292" 
d="M1280 1030l-147 -67l30 -838l115 -88l-440 -55l75 305q-188 -305 -475 -305q-169 0 -286 139t-117 346q0 266 128 436q125 166 312 166q288 0 438 -301l-63 309zM580 821q-50 -58 -50 -143q0 -88 57.5 -147.5t141.5 -59.5q59 0 127 49q-129 237 -276 301zM774 1141
l-600 450h424z" />
    <glyph glyph-name="acircumflex" unicode="&#xe2;" horiz-adv-x="1292" 
d="M1280 1030l-147 -67l30 -838l115 -88l-440 -55l75 305q-188 -305 -475 -305q-169 0 -286 139t-117 346q0 266 128 436q125 166 312 166q288 0 438 -301l-63 309zM580 821q-50 -58 -50 -143q0 -88 57.5 -147.5t141.5 -59.5q59 0 127 49q-129 237 -276 301zM1030 1130
l-379 242l-385 -242l221 465h314z" />
    <glyph glyph-name="adieresis" unicode="&#xe4;" horiz-adv-x="1292" 
d="M1280 1030l-147 -67l30 -838l115 -88l-440 -55l75 305q-188 -305 -475 -305q-169 0 -286 139t-117 346q0 266 128 436q125 166 312 166q288 0 438 -301l-63 309zM580 821q-50 -58 -50 -143q0 -88 57.5 -147.5t141.5 -59.5q59 0 127 49q-129 237 -276 301zM1247 1333
q0 -74 -76 -124q-79 -52 -207 -52q-127 0 -205.5 51t-78.5 125q0 75 77 126q81 54 207 54t206 -54q77 -51 77 -126zM614 1333q0 -74 -76 -124q-80 -52 -208 -52t-206.5 51t-78.5 125q0 75 79.5 127.5t205.5 52.5t207 -54q77 -52 77 -126z" />
    <glyph glyph-name="atilde" unicode="&#xe3;" horiz-adv-x="1292" 
d="M1280 1030l-147 -67l30 -838l115 -88l-440 -55l75 305q-188 -305 -475 -305q-169 0 -286 139t-117 346q0 266 128 436q125 166 312 166q288 0 438 -301l-63 309zM580 821q-50 -58 -50 -143q0 -88 57.5 -147.5t141.5 -59.5q59 0 127 49q-129 237 -276 301zM1206 1534
q-20 -135 -141 -248q-147 -137 -271 -137q-61 0 -139 74q-75 71 -139 71q-179 0 -287 -147q61 173 178 282q106 99 205 99q47 0 80 -23q12 -8 55 -53q47 -48 61 -57q37 -25 95 -25q199 0 303 164z" />
    <glyph glyph-name="aring" unicode="&#xe5;" horiz-adv-x="1292" 
d="M1280 1030l-147 -67l30 -838l115 -88l-440 -55l75 305q-188 -305 -475 -305q-169 0 -286 139t-117 346q0 266 128 436q125 166 312 166q288 0 438 -301l-63 309zM580 821q-50 -58 -50 -143q0 -88 57.5 -147.5t141.5 -59.5q59 0 127 49q-129 237 -276 301zM1038 1374
q0 -96 -107 -162q-111 -69 -286 -69q-176 0 -287 69q-106 65 -106 162q0 95 107 161q111 69 286 69t286 -68q107 -65 107 -162zM860 1374q0 50 -58 84q-62 37 -157 37q-96 0 -155.5 -35t-59.5 -86t59.5 -87t155.5 -36t157 37q58 35 58 86z" />
    <glyph glyph-name="ccedilla" unicode="&#xe7;" horiz-adv-x="1186" 
d="M547 -20l-39 -84q47 18 131 18q156 0 250 -61t94 -156q0 -99 -89 -158q-92 -61 -251 -61q-167 0 -289 100l-59 -49l61 223q93 -141 195 -141q115 0 115 90q0 113 -152 113q-79 0 -147 -27l69 207q-399 104 -399 477q0 264 172 436q151 152 375 152q215 0 407 -162l41 176
l58 -442q-77 86 -187 86q-74 0 -123 -50t-49 -126q0 -75 55.5 -129t131.5 -54q99 0 202 113l49 -500l-110 222q-228 -213 -477 -213h-35z" />
    <glyph glyph-name="eacute" unicode="&#xe9;" horiz-adv-x="1294" 
d="M1278 -23l-90 166q-261 -166 -541 -166q-279 0 -444.5 138t-165.5 364q0 252 174 426q162 162 418 162q245 0 404 -107q155 -104 155 -262t-142 -266q-146 -110 -368 -110q-106 0 -191 34q183 -125 371 -125q240 0 383 203zM283 690q68 -55 163 -55q80 0 129.5 46
t49.5 118q0 68 -41 116q-215 -33 -301 -225zM1071 1591l-600 -450l176 450h424z" />
    <glyph glyph-name="egrave" unicode="&#xe8;" horiz-adv-x="1294" 
d="M1278 -23l-90 166q-261 -166 -541 -166q-279 0 -444.5 138t-165.5 364q0 252 174 426q162 162 418 162q245 0 404 -107q155 -104 155 -262t-142 -266q-146 -110 -368 -110q-106 0 -191 34q183 -125 371 -125q240 0 383 203zM283 690q68 -55 163 -55q80 0 129.5 46
t49.5 118q0 68 -41 116q-215 -33 -301 -225zM774 1141l-600 450h424z" />
    <glyph glyph-name="ecircumflex" unicode="&#xea;" horiz-adv-x="1294" 
d="M1278 -23l-90 166q-261 -166 -541 -166q-279 0 -444.5 138t-165.5 364q0 252 174 426q162 162 418 162q245 0 404 -107q155 -104 155 -262t-142 -266q-146 -110 -368 -110q-106 0 -191 34q183 -125 371 -125q240 0 383 203zM283 690q68 -55 163 -55q80 0 129.5 46
t49.5 118q0 68 -41 116q-215 -33 -301 -225zM1030 1130l-379 242l-385 -242l221 465h314z" />
    <glyph glyph-name="edieresis" unicode="&#xeb;" horiz-adv-x="1294" 
d="M1278 -23l-90 166q-261 -166 -541 -166q-279 0 -444.5 138t-165.5 364q0 252 174 426q162 162 418 162q245 0 404 -107q155 -104 155 -262t-142 -266q-146 -110 -368 -110q-106 0 -191 34q183 -125 371 -125q240 0 383 203zM283 690q68 -55 163 -55q80 0 129.5 46
t49.5 118q0 68 -41 116q-215 -33 -301 -225zM1247 1333q0 -74 -76 -124q-79 -52 -207 -52q-127 0 -205.5 51t-78.5 125q0 75 77 126q81 54 207 54t206 -54q77 -51 77 -126zM614 1333q0 -74 -76 -124q-80 -52 -208 -52t-206.5 51t-78.5 125q0 75 79.5 127.5t205.5 52.5
t207 -54q77 -52 77 -126z" />
    <glyph glyph-name="iacute" unicode="&#xed;" horiz-adv-x="924" 
d="M979 12l-1036 -32l223 90l70 852l-273 108l998 37l-320 -113l125 -876zM922 1591l-600 -450l176 450h424z" />
    <glyph glyph-name="igrave" unicode="&#xec;" horiz-adv-x="924" 
d="M979 12l-1036 -32l223 90l70 852l-273 108l998 37l-320 -113l125 -876zM590 1141l-600 450h424z" />
    <glyph glyph-name="icircumflex" unicode="&#xee;" horiz-adv-x="924" 
d="M979 12l-1036 -32l223 90l70 852l-273 108l998 37l-320 -113l125 -876zM846 1130l-379 242l-385 -242l221 465h314z" />
    <glyph glyph-name="idieresis" unicode="&#xef;" horiz-adv-x="924" 
d="M979 12l-1036 -32l223 90l70 852l-273 108l998 37l-320 -113l125 -876zM1063 1333q0 -74 -76 -124q-79 -52 -207 -52q-127 0 -205.5 51t-78.5 125q0 75 77 126q81 54 207 54t206 -54q77 -51 77 -126zM430 1333q0 -74 -76 -124q-80 -52 -208 -52t-206.5 51t-78.5 125
q0 75 79.5 127.5t205.5 52.5t207 -54q77 -52 77 -126z" />
    <glyph glyph-name="ntilde" unicode="&#xf1;" horiz-adv-x="1286" 
d="M1233 18l-559 -36q112 127 112 264q0 92 -43.5 150.5t-107.5 58.5q-74 0 -124 -60.5t-50 -156.5q0 -128 80 -205l-549 -64l125 131l43 822l-164 82l522 57l-121 -244q254 242 471 242q166 0 265.5 -109.5t99.5 -292.5q0 -292 -201 -567zM1202 1534q-20 -135 -141 -248
q-147 -137 -271 -137q-61 0 -139 74q-75 71 -139 71q-179 0 -287 -147q61 173 178 282q106 99 205 99q47 0 80 -23q12 -8 55 -53q47 -48 61 -57q37 -25 95 -25q199 0 303 164z" />
    <glyph glyph-name="oacute" unicode="&#xf3;" horiz-adv-x="1233" 
d="M1196 526q0 -162 -83.5 -285.5t-216 -194.5t-280.5 -71q-252 0 -415.5 152t-163.5 383q0 246 166.5 402.5t429.5 156.5q250 0 406.5 -153t156.5 -390zM266 682q59 -74 162 -74q91 0 154 56t63 137q0 63 -41 104q-243 -68 -338 -223zM1071 1591l-600 -450l176 450h424z
" />
    <glyph glyph-name="ograve" unicode="&#xf2;" horiz-adv-x="1233" 
d="M1196 526q0 -162 -83.5 -285.5t-216 -194.5t-280.5 -71q-252 0 -415.5 152t-163.5 383q0 246 166.5 402.5t429.5 156.5q250 0 406.5 -153t156.5 -390zM266 682q59 -74 162 -74q91 0 154 56t63 137q0 63 -41 104q-243 -68 -338 -223zM743 1141l-600 450h424z" />
    <glyph glyph-name="ocircumflex" unicode="&#xf4;" horiz-adv-x="1233" 
d="M1196 526q0 -162 -83.5 -285.5t-216 -194.5t-280.5 -71q-252 0 -415.5 152t-163.5 383q0 246 166.5 402.5t429.5 156.5q250 0 406.5 -153t156.5 -390zM266 682q59 -74 162 -74q91 0 154 56t63 137q0 63 -41 104q-243 -68 -338 -223zM999 1130l-379 242l-385 -242l221 465
h314z" />
    <glyph glyph-name="odieresis" unicode="&#xf6;" horiz-adv-x="1233" 
d="M1196 526q0 -162 -83.5 -285.5t-216 -194.5t-280.5 -71q-252 0 -415.5 152t-163.5 383q0 246 166.5 402.5t429.5 156.5q250 0 406.5 -153t156.5 -390zM266 682q59 -74 162 -74q91 0 154 56t63 137q0 63 -41 104q-243 -68 -338 -223zM1218 1333q0 -74 -76 -124
q-79 -52 -207 -52q-127 0 -205.5 51t-78.5 125q0 75 77 126q81 54 207 54t206 -54q77 -51 77 -126zM585 1333q0 -74 -76 -124q-80 -52 -208 -52t-206.5 51t-78.5 125q0 75 79.5 127.5t205.5 52.5t207 -54q77 -52 77 -126z" />
    <glyph glyph-name="otilde" unicode="&#xf5;" horiz-adv-x="1233" 
d="M1196 526q0 -162 -83.5 -285.5t-216 -194.5t-280.5 -71q-252 0 -415.5 152t-163.5 383q0 246 166.5 402.5t429.5 156.5q250 0 406.5 -153t156.5 -390zM266 682q59 -74 162 -74q91 0 154 56t63 137q0 63 -41 104q-243 -68 -338 -223zM1175 1534q-20 -135 -141 -248
q-147 -137 -271 -137q-61 0 -139 74q-75 71 -139 71q-179 0 -287 -147q61 173 178 282q106 99 205 99q47 0 80 -23q12 -8 55 -53q47 -48 61 -57q37 -25 95 -25q199 0 303 164z" />
    <glyph glyph-name="uacute" unicode="&#xfa;" horiz-adv-x="1352" 
d="M1300 1063l-249 -135q243 -186 243 -428q0 -191 -139 -328q-204 -201 -530 -201q-250 0 -409 134t-159 337q0 272 244 506l-250 49l580 66q-133 -148 -133 -299q0 -184 151 -184q82 0 135.5 57.5t53.5 148.5q0 110 -86 199zM1105 1591l-600 -450l176 450h424z" />
    <glyph glyph-name="ugrave" unicode="&#xf9;" horiz-adv-x="1352" 
d="M1300 1063l-249 -135q243 -186 243 -428q0 -191 -139 -328q-204 -201 -530 -201q-250 0 -409 134t-159 337q0 272 244 506l-250 49l580 66q-133 -148 -133 -299q0 -184 151 -184q82 0 135.5 57.5t53.5 148.5q0 110 -86 199zM803 1141l-600 450h424z" />
    <glyph glyph-name="ucircumflex" unicode="&#xfb;" horiz-adv-x="1352" 
d="M1300 1063l-249 -135q243 -186 243 -428q0 -191 -139 -328q-204 -201 -530 -201q-250 0 -409 134t-159 337q0 272 244 506l-250 49l580 66q-133 -148 -133 -299q0 -184 151 -184q82 0 135.5 57.5t53.5 148.5q0 110 -86 199zM1059 1130l-379 242l-385 -242l221 465h314z
" />
    <glyph glyph-name="udieresis" unicode="&#xfc;" horiz-adv-x="1352" 
d="M1300 1063l-249 -135q243 -186 243 -428q0 -191 -139 -328q-204 -201 -530 -201q-250 0 -409 134t-159 337q0 272 244 506l-250 49l580 66q-133 -148 -133 -299q0 -184 151 -184q82 0 135.5 57.5t53.5 148.5q0 110 -86 199zM1276 1333q0 -74 -76 -124q-79 -52 -207 -52
q-127 0 -205.5 51t-78.5 125q0 75 77 126q81 54 207 54t206 -54q77 -51 77 -126zM643 1333q0 -74 -76 -124q-80 -52 -208 -52t-206.5 51t-78.5 125q0 75 79.5 127.5t205.5 52.5t207 -54q77 -52 77 -126z" />
    <glyph glyph-name="dagger" unicode="&#x2020;" horiz-adv-x="1462" 
d="M1423 1112l-43 -668l-75 189l-375 67l-109 -1013l240 -144l-670 23l232 86l-60 1055l-426 -82l-61 -172l-39 612l74 -113l442 -45l-29 508l-192 74l839 27l-167 -121l-52 -486l389 33z" />
    <glyph glyph-name="degree" unicode="&#xb0;" 
d="M946 1210q0 -128 -119 -215q-124 -90 -315 -90q-190 0 -314 90q-120 87 -120 215q0 129 120 216q124 90 314 90q191 0 315 -90q119 -87 119 -216zM705 1210q0 64 -54.5 107t-138.5 43t-138.5 -43t-54.5 -107q0 -63 55 -107t138 -44t138 44t55 107z" />
    <glyph glyph-name="cent" unicode="&#xa2;" horiz-adv-x="1239" 
d="M1155 682l43 -504l-108 219q-198 -179 -402 -211l141 -299l154 -47l-721 -47l160 111l90 284q-218 40 -336.5 168.5t-118.5 321.5q0 229 130 390.5t345 193.5l-100 286l-156 103l715 -23l-203 -96l-79 -277q131 -22 305 -135l45 154l49 -422q-61 78 -168 78
q-77 0 -130.5 -51t-53.5 -125q0 -81 55.5 -134t138.5 -53q109 0 205 115z" />
    <glyph glyph-name="sterling" unicode="&#xa3;" horiz-adv-x="1679" 
d="M1716 602l-182 -602q-234 98 -500 98q-351 0 -774 -145l-98 389l170 -195q59 43 119 72q-91 224 -127 371l-228 -8l-57 -148l-31 617l82 -172l186 -17q-2 15 -2 45q0 264 162.5 420t440.5 156q298 0 557 -176l174 178l-150 -481q-178 196 -391 196q-314 0 -344 -377
l307 -28l125 178l-53 -522l-62 165l-319 -10q3 -146 43 -268q128 31 287 31q219 0 448 -29z" />
    <glyph glyph-name="section" unicode="&#xa7;" horiz-adv-x="1393" 
d="M1196 1462l-240 -348q-99 125 -237 125q-59 0 -95 -28.5t-36 -71.5q0 -53 51.5 -89t136.5 -36q24 0 84.5 5t95.5 5q156 0 261 -82q102 -81 102 -197q0 -178 -186 -282q120 -85 120 -209q0 -162 -157 -264q-162 -105 -428 -105q-236 0 -494 148l-168 -146l166 379
q181 -153 326 -153q67 0 111 36.5t44 88.5q0 83 -116 137h-29q-200 0 -313 74t-113 196q0 186 201 283q-136 77 -136 198q0 156 128.5 250t351.5 94q230 0 379 -127zM473 567q14 -2 35 -2q84 0 135 44t51 114v8q-51 10 -78 10q-71 0 -113 -33t-42 -87q0 -23 12 -54z" />
    <glyph glyph-name="bullet" unicode="&#x2022;" horiz-adv-x="1366" 
d="M682 928q102 0 174 -71.5t72 -174.5t-71.5 -174.5t-174.5 -71.5t-174.5 71.5t-71.5 174.5t71.5 174.5t174.5 71.5z" />
    <glyph glyph-name="paragraph" unicode="&#xb6;" horiz-adv-x="1698" 
d="M1679 1475l-239 -115l69 -1671l158 -107l-489 -43l36 1737q-85 10 -127 10q-17 0 -40 -1t-29 -1l-37 -1751l-530 51l208 115l101 745q-77 -18 -162 -18q-245 0 -401 138q-154 135 -154 343q0 280 245 438q252 162 713 162q315 0 678 -32zM500 1087q38 -59 112 -59
q66 0 111 43t45 105q0 26 -8 51q-195 -10 -260 -140z" />
    <glyph glyph-name="germandbls" unicode="&#xdf;" horiz-adv-x="1630" 
d="M25 -35l223 160q-209 270 -209 590q0 343 220 561.5t593 218.5q295 0 470 -103q169 -99 169 -259q0 -168 -217 -254q328 -78 328 -344q0 -232 -209 -391q-217 -167 -572 -179q-119 238 -149 422q317 6 317 213q0 69 -47.5 116.5t-118.5 47.5q-117 0 -202 -100
q-15 57 -15 127q0 97 31 174q25 -2 59 -2q97 0 160.5 48.5t63.5 121.5q0 57 -47.5 97t-118.5 40q-146 0 -238 -141t-92 -377q0 -297 199 -727z" />
    <glyph glyph-name="registered" unicode="&#xae;" horiz-adv-x="1960" 
d="M1604 258l-445 -158l51 107l-227 321q-25 4 -65 13l40 -250l152 -139l-541 88l60 69l86 744l-187 96l488 61q114 15 174 15q412 0 412 -344q0 -285 -355 -353zM918 745q50 -28 94 -28q29 0 52 33.5t23 74.5q0 99 -141 162zM1049 1532q424 0 652 -176t228 -502
q0 -448 -157 -647q-93 -117 -292 -195q-215 -84 -464 -84q-442 0 -715 236q-262 226 -262 561q0 364 270 584q274 223 740 223zM1061 1374q-326 0 -503 -167t-177 -472q0 -332 181.5 -515t510.5 -183q190 0 343 61q140 56 198 140q121 176 121 600q0 220 -78 321
q-165 215 -596 215z" />
    <glyph glyph-name="copyright" unicode="&#xa9;" horiz-adv-x="1960" 
d="M1610 707l-74 -488l-31 201q-207 -248 -477 -248q-182 0 -319 139q-164 166 -164 383q0 246 161 400.5t420 154.5q185 0 320 -116l41 116l72 -383q-100 138 -246 138q-84 0 -135.5 -50t-51.5 -131q0 -84 63.5 -142t160.5 -58q117 0 260 84zM1049 1532q424 0 652 -176
t228 -502q0 -448 -157 -647q-93 -117 -292 -195q-215 -84 -464 -84q-442 0 -715 236q-262 226 -262 561q0 364 270 584q274 223 740 223zM1061 1374q-326 0 -503 -167t-177 -472q0 -332 181.5 -515t510.5 -183q190 0 343 61q140 56 198 140q121 176 121 600q0 220 -78 321
q-165 215 -596 215z" />
    <glyph glyph-name="trademark" unicode="&#x2122;" horiz-adv-x="2359" 
d="M1030 1493l-293 -473l-37 336l-168 -506l254 -131l-548 31l178 69l-203 549l-57 -414l-117 484zM2341 758l-723 20l131 86l117 410l-269 -359l-229 400l92 -498l193 -98l-676 51l102 72l70 514l-135 74l567 63l76 -268l72 233l548 -26l-166 -72l70 -504z" />
    <glyph glyph-name="acute" unicode="&#xb4;" 
d="M1071 1591l-600 -450l176 450h424z" />
    <glyph glyph-name="dieresis" unicode="&#xa8;" horiz-adv-x="1344" 
d="M1272 1333q0 -74 -76 -124q-79 -52 -207 -52q-127 0 -205.5 51t-78.5 125q0 75 77 126q81 54 207 54t206 -54q77 -51 77 -126zM639 1333q0 -74 -76 -124q-80 -52 -208 -52t-206.5 51t-78.5 125q0 75 79.5 127.5t205.5 52.5t207 -54q77 -52 77 -126z" />
    <glyph glyph-name="AE" unicode="&#xc6;" horiz-adv-x="2206" 
d="M2177 588l-59 -635l-1284 53l184 230l-53 227l-318 -21l-69 -260l172 -104l-834 -72l234 176l153 1188l-180 115l1020 -66l887 66l98 -393l-176 192l-516 -102l-41 -308l366 99l86 147l49 -694l-106 205l-301 16l-127 -362l575 -70zM881 793l-148 403l-137 -475z" />
    <glyph glyph-name="Oslash" unicode="&#xd8;" horiz-adv-x="1712" 
d="M524 12l-92 -153l68 -156l-498 346l207 47l59 82q-221 228 -221 524q0 292 215 504q270 267 664 267q150 0 276 -50l103 144l-62 205l399 -379l-190 39l-70 -113q283 -238 283 -617q0 -208 -109 -368q-115 -171 -317 -272t-434 -101q-146 0 -281 51zM905 1229
q-59 -88 -59 -189q0 -90 68.5 -155.5t162.5 -65.5q73 0 140 39.5t96 102.5q-147 255 -408 268z" />
    <glyph glyph-name="plusminus" unicode="&#xb1;" horiz-adv-x="1706" 
d="M735 1241h238v-319h479v-232h-479v-319h-238v319h-481v232h481v319zM254 213h1198v-231h-1198v231z" />
    <glyph glyph-name="yen" unicode="&#xa5;" horiz-adv-x="2073" 
d="M2095 1333l-219 -110l-387 -435l383 -8l117 178l-33 -548l-92 170l-604 -52l-11 -10l101 -473l252 -115l-1231 68l239 117l103 368l-541 -43l-76 -153l-55 604l76 -92l452 -4l-370 530l-211 66l1044 82l-178 -115l266 -610l232 532l-176 90z" />
    <glyph glyph-name="mu" unicode="&#xb5;" horiz-adv-x="1352" 
d="M338 33l113 -391l139 -64l-606 -43l88 103l-15 804q0 269 244 506l-250 49l580 66q-133 -155 -133 -299q0 -184 151 -184q82 0 135.5 57.5t53.5 148.5q0 110 -86 199l548 78l-249 -135q243 -186 243 -428q0 -193 -139 -328q-206 -201 -528 -201q-154 0 -289 62z" />
    <glyph glyph-name="ordfeminine" unicode="&#xaa;" horiz-adv-x="979" 
d="M956 1192l-102 -41l20 -502l80 -53l-329 -33l51 185q-134 -185 -332 -185q-121 0 -202 84t-81 207q0 157 88.5 260t221.5 103q201 0 305 -181l-45 185zM451 1057q-31 -31 -31 -78q0 -48 35.5 -80.5t89.5 -32.5q33 0 80 27q-82 132 -174 164z" />
    <glyph glyph-name="ordmasculine" unicode="&#xba;" horiz-adv-x="981" 
d="M895 889q0 -135 -118 -232.5t-288 -97.5q-177 0 -291 92.5t-114 229.5q0 144 116.5 240t301.5 96q176 0 286 -95q107 -92 107 -233zM258 987q35 -41 102 -41q58 0 97 32t39 75q0 33 -25 55q-153 -38 -213 -121z" />
    <glyph glyph-name="ae" unicode="&#xe6;" horiz-adv-x="2339" 
d="M2327 -27l-89 162q-253 -158 -520 -158q-194 0 -349.5 80t-229.5 213l-4 -184l118 -109h-403l76 299q-183 -299 -465 -299q-186 0 -305 139t-119 361q0 259 132 425q128 163 320 163q255 0 439 -293l-68 299l420 4l-143 -127l4 -252q43 167 192 268t357 101
q242 0 398 -108q150 -105 150 -259q0 -163 -136 -270q-140 -111 -363 -111q-109 0 -195 29q175 -123 377 -123q210 0 371 201zM1335 690q69 -55 164 -55q80 0 129 45.5t49 118.5q0 67 -41 116q-213 -33 -301 -225zM580 821q-50 -58 -50 -143q0 -88 57.5 -147.5t141.5 -59.5
q59 0 127 49q-133 246 -276 301z" />
    <glyph glyph-name="oslash" unicode="&#xf8;" horiz-adv-x="1233" 
d="M360 27l-59 -97l55 -127l-403 281l168 37l37 53q-119 143 -119 336q0 246 166.5 402.5t429.5 156.5q91 0 180 -25l64 91l-56 182l359 -340l-170 35l-29 -47q213 -159 213 -441q0 -160 -83.5 -283.5t-216 -194.5t-280.5 -71q-138 0 -256 52zM266 682q59 -74 164 -74
q91 0 153 55.5t62 137.5q0 63 -41 104q-243 -68 -338 -223z" />
    <glyph glyph-name="questiondown" unicode="&#xbf;" horiz-adv-x="1737" 
d="M1767 55l-155 99q-354 -166 -717 -166q-424 0 -647 215q-109 104 -109 239q0 182 149.5 291t422.5 117l73 188l-223 125l807 -78l-158 -84l66 -288q-303 -24 -432 -87q-139 -68 -139 -208q0 -211 235 -211q303 0 596 452zM612 1356q0 62 107 108q114 49 289 49
q164 0 281 -52q108 -49 108 -105q0 -61 -104 -109q-113 -51 -285 -51q-175 0 -290 51q-106 48 -106 109z" />
    <glyph glyph-name="exclamdown" unicode="&#xa1;" horiz-adv-x="1212" 
d="M-109 41l371 76l176 848l-221 118l793 29l-160 -156l78 -815l284 -155zM244 1354q0 72 102.5 113.5t292.5 41.5q176 0 285 -47q102 -44 102 -108q0 -70 -100 -115q-106 -47 -287 -47q-185 0 -294 48q-101 45 -101 114z" />
    <glyph glyph-name="logicalnot" unicode="&#xac;" 
d="M598 0v285h-530v321h886v-606h-356z" />
    <glyph glyph-name="florin" unicode="&#x192;" horiz-adv-x="1456" 
d="M1546 1470l-145 -473q-119 168 -279 168q-100 0 -153 -101q-40 -77 -92 -319l223 -16l196 170l-88 -625l-116 185l-277 -10q-63 -286 -126 -444q-72 -182 -173 -271q-120 -106 -383 -125l-86 -166l-137 494q97 -72 192 -72q100 0 150 135q31 84 96 430l-123 -4l-114 -203
l-62 721l148 -156l209 -14q79 409 157 539q117 192 389 192q265 0 459 -137z" />
    <glyph glyph-name="guillemotleft" unicode="&#xab;" horiz-adv-x="1597" 
d="M881 467l-160 -408l-643 603l545 569l274 -287l-502 -219zM1487 489l-182 -430l-596 625l497 547l275 -287l-502 -219z" />
    <glyph glyph-name="guillemotright" unicode="&#xbb;" horiz-adv-x="1597" 
d="M889 608l-498 -545l-274 285l501 219l-505 236l180 432zM1520 631l-545 -568l-250 285l477 219l-483 260l158 408z" />
    <glyph glyph-name="ellipsis" unicode="&#x2026;" horiz-adv-x="2476" 
d="M696 170q0 -63 -79 -114q-85 -54 -205 -54q-121 0 -206 53q-79 51 -79 115q0 63 79 111q83 51 206 51t206 -52q78 -48 78 -110zM1522 170q0 -63 -80 -114q-84 -54 -205 -54t-205 53q-80 51 -80 115q0 63 78 111q83 51 207 51q123 0 207 -52q78 -48 78 -110zM2347 170
q0 -63 -80 -114q-86 -54 -207 -54t-204 53q-78 50 -78 115q0 63 77 111q83 51 205 51q124 0 208 -52q79 -48 79 -110z" />
    <glyph glyph-name="uni00A0" unicode="&#xa0;" 
 />
    <glyph glyph-name="Agrave" unicode="&#xc0;" horiz-adv-x="1741" 
d="M1845 217l-872 -270l223 299l-63 221l-324 -25l-94 -258l141 -110l-948 -68l231 172l307 1194l-174 113l1176 -39l-274 -98l481 -1074zM1038 791l-139 399l-135 -492zM1090 1571l-600 450h424z" />
    <glyph glyph-name="Atilde" unicode="&#xc3;" horiz-adv-x="1741" 
d="M1845 217l-872 -270l223 299l-63 221l-324 -25l-94 -258l141 -110l-948 -68l231 172l307 1194l-174 113l1176 -39l-274 -98l481 -1074zM1038 791l-139 399l-135 -492zM1431 1976q-20 -135 -141 -248q-147 -137 -271 -137q-61 0 -139 74q-75 71 -139 71q-179 0 -287 -147
q61 173 178 282q106 99 205 99q47 0 80 -23q12 -8 55 -53q47 -48 61 -57q37 -25 95 -25q199 0 303 164z" />
    <glyph glyph-name="Otilde" unicode="&#xd5;" horiz-adv-x="1712" 
d="M1665 707q0 -217 -109 -375q-115 -169 -317.5 -270t-431.5 -101q-242 0 -424 123q-160 108 -248 269.5t-88 348.5q0 292 215 504q270 267 660 267q237 0 409 -117q153 -104 243.5 -279t90.5 -370zM905 1229q-59 -88 -59 -189q0 -90 68.5 -155.5t162.5 -65.5
q73 0 140 39.5t96 102.5q-147 255 -408 268zM1460 1976q-20 -135 -141 -248q-147 -137 -271 -137q-61 0 -139 74q-75 71 -139 71q-179 0 -287 -147q61 173 178 282q106 99 205 99q47 0 80 -23q12 -8 55 -53q47 -48 61 -57q37 -25 95 -25q199 0 303 164z" />
    <glyph glyph-name="OE" unicode="&#x152;" horiz-adv-x="2552" 
d="M2525 606l-69 -647l-1270 78q-199 -78 -400 -78q-305 0 -522 215.5t-217 521.5q0 395 344 621q240 158 520 158q188 0 351 -74l1118 74l96 -392l-176 203l-467 -69l-84 -326l350 86l109 160l39 -725l-105 223l-305 22l-129 -366l571 -74zM901 1229q-59 -88 -59 -189
q0 -89 69 -155t162 -66q73 0 140 40t96 102q-152 258 -408 268z" />
    <glyph glyph-name="oe" unicode="&#x153;" horiz-adv-x="2195" 
d="M2185 -18l-92 165q-297 -176 -547 -176q-271 0 -491 183q-216 -183 -443 -183q-251 0 -413 152.5t-162 386.5q0 248 169 404.5t443 156.5q246 0 422 -197q138 197 459 197q240 0 401 -109q156 -106 156 -255q0 -131 -100 -228q-158 -151 -377 -151q-115 0 -226 30
q200 -122 377 -122q208 0 383 208zM1184 690q68 -55 162 -55q79 0 128.5 45.5t49.5 118.5q0 71 -41 106q-215 -21 -299 -215zM266 682q59 -74 164 -74q90 0 152.5 56.5t62.5 136.5q0 60 -41 104q-243 -68 -338 -223z" />
    <glyph glyph-name="endash" unicode="&#x2013;" horiz-adv-x="780" 
d="M711 860l-27 -307l-551 -107l-63 426z" />
    <glyph glyph-name="emdash" unicode="&#x2014;" horiz-adv-x="1677" 
d="M1608 817l-27 -239l-1479 -136l-32 383z" />
    <glyph glyph-name="quotedblleft" unicode="&#x201c;" horiz-adv-x="1315" 
d="M539 1712l-119 -461q101 -16 160 -60q55 -41 55 -93q0 -61 -74 -107q-79 -49 -194 -49q-117 0 -196 49q-75 46 -75 107q0 48 54 116zM1122 1712l-118 -461q100 -16 159 -60q56 -42 56 -93q0 -62 -74 -107q-78 -49 -195 -49q-116 0 -197 49q-75 47 -75 107q0 46 55 116z
" />
    <glyph glyph-name="quotedblright" unicode="&#x201d;" horiz-adv-x="1315" 
d="M193 709l118 460q-100 15 -159 60q-56 42 -56 94q0 61 74 107q79 49 195 49t195 -49q75 -46 75 -107q0 -49 -53 -117zM776 709l119 460q-100 15 -161 61q-56 43 -56 93q0 61 74 107q79 49 196 49t196 -50q75 -46 75 -106q0 -49 -54 -117z" />
    <glyph glyph-name="quoteleft" unicode="&#x2018;" horiz-adv-x="731" 
d="M539 1712l-119 -461q101 -16 160 -60q55 -41 55 -93q0 -61 -74 -107q-79 -49 -194 -49q-117 0 -196 49q-75 46 -75 107q0 48 54 116z" />
    <glyph glyph-name="quoteright" unicode="&#x2019;" horiz-adv-x="731" 
d="M193 709l118 460q-100 15 -159 60q-56 42 -56 94q0 61 74 107q79 49 195 49t195 -49q75 -46 75 -107q0 -49 -53 -117z" />
    <glyph glyph-name="divide" unicode="&#xf7;" horiz-adv-x="1706" 
d="M854 1182q67 0 115.5 -49t48.5 -117q0 -67 -48 -115.5t-118 -48.5q-69 0 -116.5 48t-47.5 116q0 69 49 117.5t117 48.5zM254 727h1198v-231h-1198v231zM854 371q68 0 116 -48.5t48 -117.5q0 -67 -47 -115.5t-117 -48.5q-68 0 -117 47.5t-49 116.5t49 117.5t117 48.5z" />
    <glyph glyph-name="ydieresis" unicode="&#xff;" horiz-adv-x="1358" 
d="M1300 1065l-210 -104q217 -447 217 -730q0 -311 -179 -505q-170 -187 -421 -187q-230 0 -437 107l-178 -111l262 422q183 -217 377 -217q128 0 206.5 82t78.5 219q0 101 -47 199q-153 -238 -439 -238q-207 0 -339 116t-132 296q0 266 248 526l-256 53l604 70
q-141 -168 -141 -326q0 -80 39 -130t98 -50q84 0 138.5 65.5t54.5 172.5q0 137 -62 231zM1280 1333q0 -74 -76 -124q-79 -52 -207 -52q-127 0 -205.5 51t-78.5 125q0 75 77 126q81 54 207 54t206 -54q77 -51 77 -126zM647 1333q0 -74 -76 -124q-80 -52 -208 -52t-206.5 51
t-78.5 125q0 75 79.5 127.5t205.5 52.5t207 -54q77 -52 77 -126z" />
    <glyph glyph-name="Ydieresis" unicode="&#x178;" horiz-adv-x="1839" 
d="M1978 1333l-219 -110l-626 -705l100 -473l254 -115l-1233 68l240 117l122 448l-534 762l-211 66l1044 82l-178 -115l269 -610l229 532l-176 90zM1522 1775q0 -74 -76 -124q-79 -52 -207 -52q-127 0 -205.5 51t-78.5 125q0 75 77 126q81 54 207 54t206 -54q77 -51 77 -126
zM889 1775q0 -74 -76 -124q-80 -52 -208 -52t-206.5 51t-78.5 125q0 75 79.5 127.5t205.5 52.5t207 -54q77 -52 77 -126z" />
    <glyph glyph-name="uni2215" unicode="&#x2215;" horiz-adv-x="588" 
d="M1083 1399l-286 -74l-676 -1233l147 -123l-807 131l291 84l764 1159l-199 152z" />
    <glyph glyph-name="currency" unicode="&#xa4;" horiz-adv-x="1993" 
d="M1999 1239l-193 31l-327 -215q198 -135 198 -348q0 -182 -137 -322l160 -117l235 64l-491 -486l74 199l-177 209q-169 -70 -360 -70q-221 0 -391 121l-238 -260l43 -186l-397 469l156 -66l301 193q-60 99 -60 231q0 195 158 326l-264 202l-142 -53l385 424l-16 -205
l205 -270q160 64 328 64q130 0 256 -39l331 335v152zM1294 698q0 98 -80.5 166t-201.5 68q-124 0 -204.5 -67t-80.5 -167q0 -96 80.5 -160.5t204.5 -64.5q123 0 202.5 64.5t79.5 160.5z" />
    <glyph glyph-name="guilsinglleft" unicode="&#x2039;" horiz-adv-x="1014" 
d="M903 489l-182 -430l-643 603l545 569l274 -287l-502 -219z" />
    <glyph glyph-name="guilsinglright" unicode="&#x203a;" horiz-adv-x="1014" 
d="M936 631l-545 -568l-274 285l501 219l-505 236l180 432z" />
    <glyph glyph-name="daggerdbl" unicode="&#x2021;" horiz-adv-x="1462" 
d="M1419 457l-30 -572l-70 152l-455 96l-47 -446l242 -144l-668 23l227 86l-24 487l-453 -98l-65 -154l-37 535l86 -100l459 -27l-27 504l-420 -54l-61 -122l-41 528l80 -107l430 -45l-21 418l-194 74l837 27l-168 -119l-43 -402l402 31l61 115l-33 -574l-73 158l-379 68
l-51 -504l467 12z" />
    <glyph glyph-name="periodcentered" unicode="&#xb7;" horiz-adv-x="825" 
d="M725 684q0 -70 -87 -125q-93 -59 -226 -59t-225 58q-87 55 -87 126q0 69 86 122q91 56 226 56t227 -57q86 -53 86 -121z" />
    <glyph glyph-name="periodcentered" unicode="&#x2219;" horiz-adv-x="825" 
d="M725 684q0 -70 -87 -125q-93 -59 -226 -59t-225 58q-87 55 -87 126q0 69 86 122q91 56 226 56t227 -57q86 -53 86 -121z" />
    <glyph glyph-name="quotesinglbase" unicode="&#x201a;" horiz-adv-x="731" 
d="M193 -459l118 461q-101 16 -159 60q-56 41 -56 94q0 61 74 108q79 49 195 49t195 -49q75 -47 75 -108q0 -49 -53 -117z" />
    <glyph glyph-name="quotedblbase" unicode="&#x201e;" horiz-adv-x="1315" 
d="M193 -459l118 461q-101 16 -159 60q-56 41 -56 94q0 61 74 108q79 49 195 49t195 -49q75 -47 75 -108q0 -49 -53 -117zM776 -459l119 461q-101 16 -161 61q-56 42 -56 93q0 60 74 107q80 50 196 50t196 -50q75 -47 75 -107q0 -49 -54 -117z" />
    <glyph glyph-name="perthousand" unicode="&#x2030;" horiz-adv-x="2314" 
d="M1386 883q87 0 139 -75t52 -212q0 -244 -182 -461q-118 -139 -244 -139q-83 0 -134.5 71t-51.5 193q0 280 176 488q115 135 245 135zM1343 324q-1 0 -7 1t-9 1q-66 0 -113 -45.5t-47 -108.5q0 -16 2 -27q174 43 174 174v5zM1620 1399l-287 -74l-676 -1233l150 -123
l-809 131l293 84l762 1159l-199 152zM530 1479q88 0 139 -76q54 -80 54 -227q0 -240 -178 -451q-123 -145 -248 -145q-85 0 -139 72.5t-54 197.5q0 270 183 487q118 142 243 142zM485 1300q-151 -45 -151 -172q0 -3 1 -9t1 -9q69 0 112.5 42.5t43.5 109.5q0 17 -7 38z
M2040 883q190 0 190 -305q0 -229 -182 -443q-118 -139 -244 -139q-83 0 -134.5 70t-51.5 192q0 280 176 490q114 135 246 135zM1997 324q-2 0 -7.5 1t-9.5 1q-65 0 -111 -45t-46 -107v-29q174 40 174 179z" />
    <glyph glyph-name="Acircumflex" unicode="&#xc2;" horiz-adv-x="1741" 
d="M1845 217l-872 -270l223 299l-63 221l-324 -25l-94 -258l141 -110l-948 -68l231 172l307 1194l-174 113l1176 -39l-274 -98l481 -1074zM1038 791l-139 399l-135 -492zM1210 1568l-379 242l-385 -242l221 465h314z" />
    <glyph glyph-name="Ecircumflex" unicode="&#xca;" horiz-adv-x="1661" 
d="M1626 616l-90 -661l-1647 72l433 151l-154 1098l-279 108l1567 107l98 -459l-163 168l-482 -2l-73 -305l344 80l102 157l39 -692l-109 172l-305 41l-121 -325l574 -72zM1161 1572l-379 242l-385 -242l221 465h314z" />
    <glyph glyph-name="Aacute" unicode="&#xc1;" horiz-adv-x="1741" 
d="M1845 217l-872 -270l223 299l-63 221l-324 -25l-94 -258l141 -110l-948 -68l231 172l307 1194l-174 113l1176 -39l-274 -98l481 -1074zM1038 791l-139 399l-135 -492zM1378 2025l-600 -450l176 450h424z" />
    <glyph glyph-name="Edieresis" unicode="&#xcb;" horiz-adv-x="1661" 
d="M1626 616l-90 -661l-1647 72l433 151l-154 1098l-279 108l1567 107l98 -459l-163 168l-482 -2l-73 -305l344 80l102 157l39 -692l-109 172l-305 41l-121 -325l574 -72zM1378 1775q0 -74 -76 -124q-79 -52 -207 -52q-127 0 -205.5 51t-78.5 125q0 75 77 126q81 54 207 54
t206 -54q77 -51 77 -126zM745 1775q0 -74 -76 -124q-80 -52 -208 -52t-206.5 51t-78.5 125q0 75 79.5 127.5t205.5 52.5t207 -54q77 -52 77 -126z" />
    <glyph glyph-name="Egrave" unicode="&#xc8;" horiz-adv-x="1661" 
d="M1626 616l-90 -661l-1647 72l433 151l-154 1098l-279 108l1567 107l98 -459l-163 168l-482 -2l-73 -305l344 80l102 157l39 -692l-109 172l-305 41l-121 -325l574 -72zM1032 1579l-600 450h424z" />
    <glyph glyph-name="Iacute" unicode="&#xcd;" horiz-adv-x="1108" 
d="M1249 51l-1226 -119l206 154l99 1118l-351 269l1207 -101l-449 -129l203 -995zM1104 2025l-600 -450l176 450h424z" />
    <glyph glyph-name="Icircumflex" unicode="&#xce;" horiz-adv-x="1108" 
d="M1249 51l-1226 -119l206 154l99 1118l-351 269l1207 -101l-449 -129l203 -995zM936 1572l-379 242l-385 -242l221 465h314z" />
    <glyph glyph-name="Idieresis" unicode="&#xcf;" horiz-adv-x="1108" 
d="M1249 51l-1226 -119l206 154l99 1118l-351 269l1207 -101l-449 -129l203 -995zM1157 1775q0 -74 -76 -124q-79 -52 -207 -52q-127 0 -205.5 51t-78.5 125q0 75 77 126q81 54 207 54t206 -54q77 -51 77 -126zM524 1775q0 -74 -76 -124q-80 -52 -208 -52t-206.5 51
t-78.5 125q0 75 79.5 127.5t205.5 52.5t207 -54q77 -52 77 -126z" />
    <glyph glyph-name="Igrave" unicode="&#xcc;" horiz-adv-x="1108" 
d="M1249 51l-1226 -119l206 154l99 1118l-351 269l1207 -101l-449 -129l203 -995zM807 1575l-600 450h424z" />
    <glyph glyph-name="Oacute" unicode="&#xd3;" horiz-adv-x="1712" 
d="M1665 707q0 -217 -109 -375q-115 -169 -317.5 -270t-431.5 -101q-242 0 -424 123q-160 108 -248 269.5t-88 348.5q0 292 215 504q270 267 660 267q237 0 409 -117q153 -104 243.5 -279t90.5 -370zM905 1229q-59 -88 -59 -189q0 -90 68.5 -155.5t162.5 -65.5
q73 0 140 39.5t96 102.5q-147 255 -408 268zM1411 2029l-600 -450l176 450h424z" />
    <glyph glyph-name="Ocircumflex" unicode="&#xd4;" horiz-adv-x="1726" 
d="M1673 702q0 -200 -102 -358q-113 -174 -317 -278.5t-439 -104.5q-239 0 -424 123q-159 106 -247.5 268.5t-88.5 349.5q0 294 213 504q270 267 662 267q308 0 514 -203q106 -105 167.5 -256.5t61.5 -311.5zM913 1229q-59 -91 -59 -189q0 -89 69 -155t162 -66
q73 0 139.5 40t94.5 102q-148 258 -406 268zM1239 1581l-379 242l-385 -242l221 465h314z" />
    <glyph glyph-name="Ograve" unicode="&#xd2;" horiz-adv-x="1712" 
d="M1665 707q0 -217 -109 -375q-115 -169 -317.5 -270t-431.5 -101q-242 0 -424 123q-160 108 -248 269.5t-88 348.5q0 292 215 504q270 267 660 267q237 0 409 -117q153 -104 243.5 -279t90.5 -370zM905 1229q-59 -88 -59 -189q0 -90 68.5 -155.5t162.5 -65.5
q73 0 140 39.5t96 102.5q-147 255 -408 268zM1106 1571l-600 450h424z" />
    <glyph glyph-name="Uacute" unicode="&#xda;" horiz-adv-x="1726" 
d="M1698 1434l-355 -195q330 -226 330 -575q0 -176 -100 -316q-125 -174 -339.5 -279.5t-449.5 -105.5q-294 0 -511.5 219t-217.5 508q0 365 441 647l-414 54l850 114q-309 -235 -309 -491q0 -121 81 -200t201 -79q111 0 184.5 83.5t73.5 209.5q0 174 -141 303zM1415 2025
l-600 -450l176 450h424z" />
    <glyph glyph-name="Ucircumflex" unicode="&#xdb;" horiz-adv-x="1726" 
d="M1698 1434l-355 -195q330 -226 330 -575q0 -176 -100 -316q-125 -174 -339.5 -279.5t-449.5 -105.5q-294 0 -511.5 219t-217.5 508q0 365 441 647l-414 54l850 114q-309 -235 -309 -491q0 -121 81 -200t201 -79q111 0 184.5 83.5t73.5 209.5q0 174 -141 303zM1247 1576
l-379 242l-385 -242l221 465h314z" />
    <glyph glyph-name="Ugrave" unicode="&#xd9;" horiz-adv-x="1726" 
d="M1698 1434l-355 -195q330 -226 330 -575q0 -176 -100 -316q-125 -174 -339.5 -279.5t-449.5 -105.5q-294 0 -511.5 219t-217.5 508q0 365 441 647l-414 54l850 114q-309 -235 -309 -491q0 -121 81 -200t201 -79q111 0 184.5 83.5t73.5 209.5q0 174 -141 303zM1110 1583
l-600 450h424z" />
    <glyph glyph-name="dotlessi" unicode="&#x131;" horiz-adv-x="924" 
d="M979 12l-1036 -32l223 90l70 852l-273 108l998 37l-320 -113l125 -876z" />
    <glyph glyph-name="circumflex" unicode="&#x2c6;" 
d="M895 1130l-379 242l-385 -242l221 465h314z" />
    <glyph glyph-name="tilde" unicode="&#x2dc;" 
d="M1071 1534q-20 -135 -141 -248q-147 -137 -271 -137q-61 0 -139 74q-75 71 -139 71q-179 0 -287 -147q61 173 178 282q106 99 205 99q47 0 80 -23q12 -8 55 -53q47 -48 61 -57q37 -25 95 -25q199 0 303 164z" />
    <glyph glyph-name="uni02C9" unicode="&#x2c9;" 
d="M856 1491l-27 -215l-598 -107l-63 334z" />
    <glyph glyph-name="breve" unicode="&#x2d8;" 
d="M791 1540q118 -66 118 -162q0 -95 -109 -161q-114 -70 -286 -70q-169 0 -284 71q-111 68 -111 160q0 100 127 168q-4 -28 -4 -30q0 -60 75 -105q81 -47 199 -47q117 0 196 50t79 118v8z" />
    <glyph glyph-name="dotaccent" unicode="&#x2d9;" 
d="M827 1333q0 -73 -84 -123q-89 -53 -231 -53t-231 52q-84 50 -84 124q0 75 85 126q90 54 230 54t230 -54q85 -51 85 -126z" />
    <glyph glyph-name="ring" unicode="&#x2da;" 
d="M905 1374q0 -96 -107 -162q-111 -69 -286 -69q-176 0 -287 69q-106 65 -106 162q0 95 107 161q111 69 286 69t286 -68q107 -65 107 -162zM727 1374q0 50 -58 84q-62 37 -157 37q-96 0 -155.5 -35t-59.5 -86t59.5 -87t155.5 -36t157 37q58 35 58 86z" />
    <glyph glyph-name="cedilla" unicode="&#xb8;" 
d="M487 25l-59 -129q47 18 131 18q156 0 250 -61t94 -156q0 -99 -89 -158q-92 -61 -251 -61q-169 0 -291 100l-59 -49l61 223q93 -141 197 -141q113 0 113 90q0 113 -152 113q-79 0 -147 -27l121 358z" />
    <glyph glyph-name="hungarumlaut" unicode="&#x2dd;" 
d="M1221 1591l-600 -450l176 450h424zM698 1591l-600 -450l177 450h423z" />
    <glyph glyph-name="ogonek" unicode="&#x2db;" 
d="M766 39l205 -84q-15 -43 -15 -94q0 -70 39.5 -115t98.5 -45q118 0 215 158l125 -328l-86 90q-139 -86 -279 -86q-153 0 -261 97t-108 233q0 93 66 174z" />
    <glyph glyph-name="caron" unicode="&#x2c7;" 
d="M893 1649l-221 -465h-314l-229 465l379 -242z" />
    <glyph glyph-name="Lslash" unicode="&#x141;" horiz-adv-x="1524" 
d="M236 610l-109 -61l-33 -148l-127 455l74 -65l205 53l18 416l-272 81l975 107l-254 -186l51 -275l217 90l16 154l168 -522l-121 122l-245 -38l84 -451l356 182l117 264l157 -876l-131 154l-1351 -74l184 129z" />
    <glyph glyph-name="lslash" unicode="&#x142;" horiz-adv-x="954" 
d="M252 594l-131 -92l-6 -148l-140 455l78 -66l197 66l-8 438l-207 37l784 221l-63 -497l133 69l14 154l109 -522l-97 122l-186 -40l-92 -701l225 -82l-829 -41l227 131z" />
    <glyph glyph-name="Scaron" unicode="&#x160;" horiz-adv-x="1690" 
d="M1262 1458l170 -536q-285 247 -431 247q-112 0 -112 -108q0 -125 262 -205q273 -83 379 -158q131 -93 131 -241q0 -215 -210 -356q-215 -144 -556 -144q-357 0 -655 240v-240l-179 535q257 -209 463 -209q224 0 224 170q0 87 -67 135q-49 35 -192 80q-473 148 -473 426
q0 174 152 287q156 116 410 116q322 0 645 -242zM1122 2087l-221 -465h-314l-229 465l379 -242z" />
    <glyph glyph-name="scaron" unicode="&#x161;" horiz-adv-x="1251" 
d="M1116 1067l-190 -362q-153 137 -287 137q-131 0 -131 -105q0 -65 80 -86q44 -12 233 -24q217 -15 316 -78q104 -67 104 -201q0 -162 -158 -265q-161 -106 -428 -106q-234 0 -495 150l-166 -147l129 403q200 -176 358 -176q140 0 140 125q0 70 -57 99q-41 21 -175 42
q-165 26 -240 84q-79 61 -79 172q0 156 126 249q130 95 353 95q232 0 379 -127zM1008 1649l-221 -465h-314l-229 465l379 -242z" />
    <glyph glyph-name="Zcaron" unicode="&#x17d;" horiz-adv-x="1608" 
d="M1583 1376l-1012 -1102l764 218l221 331l-102 -780l-1524 -109l811 1223l-454 -53l-125 -344l-133 737zM1188 2091l-221 -465h-314l-229 465l379 -242z" />
    <glyph glyph-name="zcaron" unicode="&#x17e;" horiz-adv-x="1247" 
d="M1251 981l-716 -750l512 181l153 241l-53 -590l-1145 -104l528 838l-354 -72l-117 -225l-41 565zM1006 1649l-221 -465h-314l-229 465l379 -242z" />
    <glyph glyph-name="brokenbar" unicode="&#xa6;" 
d="M328 1366h368v-735h-368v735zM328 313h368v-655h-368v655z" />
    <glyph glyph-name="Eth" unicode="&#xd0;" horiz-adv-x="1612" 
d="M268 705l-159 -33l-68 -156l-37 537l86 -101l150 -22l-52 391l-272 182l1034 -110q286 -31 450.5 -202t164.5 -435q0 -329 -233.5 -520.5t-676.5 -221.5l-739 -49l428 160zM635 745l-29 -256q395 149 395 394q0 206 -313 344l-37 -332l295 -61z" />
    <glyph glyph-name="Eth" unicode="&#x110;" horiz-adv-x="1612" 
d="M268 705l-159 -33l-68 -156l-37 537l86 -101l150 -22l-52 391l-272 182l1034 -110q286 -31 450.5 -202t164.5 -435q0 -329 -233.5 -520.5t-676.5 -221.5l-739 -49l428 160zM635 745l-29 -256q395 149 395 394q0 206 -313 344l-37 -332l295 -61z" />
    <glyph glyph-name="eth" unicode="&#xf0;" horiz-adv-x="1233" 
d="M825 1403l254 123l63 -154q-16 -9 -200 -94q256 -323 256 -686q0 -225 -83.5 -349.5t-217 -196t-281.5 -71.5q-252 0 -415.5 152t-163.5 383q0 213 165.5 351t430.5 138q87 0 158 -18q-21 95 -82 193l-254 -115l-139 97l292 142q-107 114 -250 146l377 260l-98 -162
q109 -68 188 -139zM266 635q58 -74 162 -74q91 0 154 56.5t63 136.5q0 60 -41 104q-243 -70 -338 -223z" />
    <glyph glyph-name="Yacute" unicode="&#xdd;" horiz-adv-x="1839" 
d="M1978 1333l-219 -110l-626 -705l100 -473l254 -115l-1233 68l240 117l122 448l-534 762l-211 66l1044 82l-178 -115l269 -610l229 532l-176 90zM1590 1986l-600 -450l176 450h424z" />
    <glyph glyph-name="yacute" unicode="&#xfd;" horiz-adv-x="1358" 
d="M1300 1065l-210 -104q217 -447 217 -730q0 -311 -179 -505q-170 -187 -421 -187q-230 0 -437 107l-178 -111l262 422q183 -217 377 -217q128 0 206.5 82t78.5 219q0 101 -47 199q-153 -238 -439 -238q-207 0 -339 116t-132 296q0 266 248 526l-256 53l604 70
q-141 -168 -141 -326q0 -80 39 -130t98 -50q84 0 138.5 65.5t54.5 172.5q0 137 -62 231zM1239 1591l-600 -450l176 450h424z" />
    <glyph glyph-name="Thorn" unicode="&#xde;" horiz-adv-x="1661" 
d="M-23 1358l908 135l-162 -211q91 21 201 21q702 0 702 -537q0 -228 -152.5 -370t-402.5 -142q-278 0 -448 117l63 -240l328 -199l-1008 95l141 100l146 1094zM578 637q140 60 225 166q78 96 78 188q0 107 -86 107q-61 0 -125 -37z" />
    <glyph glyph-name="thorn" unicode="&#xfe;" horiz-adv-x="1282" 
d="M309 188l160 -546l139 -64l-608 -43l90 103l49 1619l-137 64l500 166l-113 -670q198 250 447 250q174 0 291.5 -135.5t117.5 -341.5q0 -291 -182 -477q-137 -140 -332 -140q-228 0 -422 215zM416 532q46 -57 121 -57q78 0 129 59.5t51 151.5q0 79 -51 141
q-195 -126 -250 -295z" />
    <glyph glyph-name="minus" unicode="&#x2212;" horiz-adv-x="1706" 
d="M254 727h1198v-229h-1198v229z" />
    <glyph glyph-name="multiply" unicode="&#xd7;" horiz-adv-x="1706" 
d="M430 1214l440 -440l441 440l162 -161l-441 -443l441 -440l-162 -162l-441 441l-440 -441l-162 162l441 440l-441 443z" />
    <glyph glyph-name="uni00B9" unicode="&#xb9;" horiz-adv-x="756" 
d="M696 563l-678 25l195 71l-25 574l-221 14l717 230l-168 -811z" />
    <glyph glyph-name="uni00B2" unicode="&#xb2;" horiz-adv-x="1122" 
d="M1085 1028l-79 -424l-1043 -55l486 518q96 103 96 162q0 76 -94 76q-158 0 -295 -232l-156 354l137 -129q229 168 471 168q184 0 291 -70t107 -186q0 -98 -67 -168q-54 -58 -191 -131l-394 -206l623 137z" />
    <glyph glyph-name="uni00B3" unicode="&#xb3;" horiz-adv-x="1202" 
d="M76 1436l94 -86q261 123 508 123q175 0 284 -62q103 -58 103 -141q0 -135 -270 -197q6 0 19 1t20 1q143 0 233 -65.5t90 -161.5q0 -128 -138 -209q-144 -84 -388 -84q-281 0 -469 76v-78l-164 344q241 -199 481 -199q94 0 150.5 43t56.5 111q0 100 -113 100
q-59 0 -114 -37l-27 -104l-100 297l88 -53q252 45 252 170q0 100 -133 100q-196 0 -344 -231z" />
    <glyph glyph-name="onehalf" unicode="&#xbd;" horiz-adv-x="2372" 
d="M672 563l-676 25l192 71l-22 574l-221 14l714 230l-165 -811zM1792 1399l-289 -74l-674 -1233l148 -123l-807 131l291 84l762 1159l-197 152zM2357 453l-80 -422l-1042 -56l487 517q95 99 95 161q0 78 -95 78q-158 0 -295 -231l-153 352l137 -127q229 168 469 168
q184 0 292 -70q105 -70 105 -186q0 -99 -65 -169q-54 -58 -191 -130l-393 -207l621 137z" />
    <glyph glyph-name="onequarter" unicode="&#xbc;" horiz-adv-x="2537" 
d="M741 563l-675 25l194 71l-24 574l-222 14l717 230l-168 -811zM1862 1399l-287 -74l-676 -1233l148 -123l-807 131l290 84l762 1159l-196 152zM2435 645l-8 -471l-57 158l-207 -43l55 -226l137 -59l-651 -24l121 96l33 188l-658 -37l537 617l635 45l-113 -60l-84 -358
l203 74zM1874 465l-8 215l-267 -272z" />
    <glyph glyph-name="threequarters" unicode="&#xbe;" horiz-adv-x="2986" 
d="M123 1436l92 -86q261 123 510 123q175 0 284 -62q103 -58 103 -141q0 -135 -270 -197q14 2 41 2q140 0 232 -67q87 -63 87 -154q0 -134 -137 -215q-142 -84 -387 -84q-280 0 -471 76v-78l-162 344q241 -199 481 -199q94 0 149.5 42.5t55.5 111.5q0 100 -113 100
q-57 0 -112 -37l-29 -104l-100 297l90 -53q252 48 252 170q0 100 -133 100q-193 0 -344 -231zM2310 1399l-289 -74l-673 -1233l147 -123l-809 131l293 84l762 1159l-199 152zM2884 645l-9 -471l-59 158l-207 -43l57 -226l136 -59l-650 -24l119 96l33 188l-655 -37l536 617
l633 45l-113 -60l-82 -358l203 74zM2322 465l-8 215l-266 -272z" />
    <glyph glyph-name="Gbreve" unicode="&#x11e;" horiz-adv-x="1804" 
d="M1774 860l-148 -141l60 -520q-330 -244 -717 -244q-327 0 -582 180q-342 242 -342 625q0 351 309 551q282 182 682 182q303 0 525 -139l49 135l78 -543q-251 299 -545 299q-204 0 -328.5 -135t-124.5 -358q0 -198 115.5 -321.5t298.5 -123.5q-4 0 61 4l88 291l-211 -24
l-65 -123l-27 612l103 -143zM1262 1965q118 -66 118 -162q0 -95 -109 -161q-114 -70 -286 -70q-169 0 -284 71q-111 68 -111 160q0 100 127 168q-4 -28 -4 -30q0 -60 75 -105q81 -47 199 -47q117 0 196 50t79 118v8z" />
    <glyph glyph-name="gbreve" unicode="&#x11f;" horiz-adv-x="1339" 
d="M1280 1038l-147 -82q139 -463 139 -755q0 -313 -154 -484.5t-430 -171.5q-227 0 -461 111l-143 -117l207 426q180 -205 391 -205q120 0 205.5 98.5t85.5 231.5q0 101 -47 199q-172 -277 -447 -277q-188 0 -315 142.5t-127 355.5q0 246 136 406q133 157 335 157
q223 0 428 -229l-92 229zM608 864q-53 -59 -53 -139q0 -87 58.5 -151t131.5 -64q71 0 140 65q-112 222 -277 289zM923 1540q118 -66 118 -162q0 -95 -109 -161q-114 -70 -286 -70q-169 0 -284 71q-111 68 -111 160q0 100 127 168q-4 -28 -4 -30q0 -60 75 -105
q81 -47 199 -47q117 0 196 50t79 118v8z" />
    <glyph glyph-name="Idotaccent" unicode="&#x130;" horiz-adv-x="1108" 
d="M1249 51l-1226 -119l206 154l99 1118l-351 269l1207 -101l-449 -129l203 -995zM868 1740q0 -73 -84 -123q-89 -53 -231 -53t-231 52q-84 50 -84 124q0 75 85 126q90 54 230 54t230 -54q85 -51 85 -126z" />
    <glyph glyph-name="Scedilla" unicode="&#x15e;" horiz-adv-x="1690" 
d="M1262 1458l170 -536q-285 247 -431 247q-112 0 -112 -108q0 -125 262 -205q273 -83 379 -158q131 -93 131 -241q0 -215 -210 -356q-215 -144 -556 -144q-357 0 -655 240v-240l-179 535q257 -209 463 -209q224 0 224 170q0 87 -67 135q-49 35 -192 80q-473 148 -473 426
q0 174 152 287q156 116 410 116q322 0 645 -242zM864 -20l-59 -129q47 18 131 18q156 0 250 -61t94 -156q0 -99 -89 -158q-92 -61 -251 -61q-169 0 -291 100l-59 -49l61 223q93 -141 197 -141q113 0 113 90q0 113 -152 113q-79 0 -147 -27l121 358z" />
    <glyph glyph-name="scedilla" unicode="&#x15f;" horiz-adv-x="1251" 
d="M1116 1067l-190 -362q-153 137 -287 137q-131 0 -131 -105q0 -65 80 -86q44 -12 233 -24q217 -15 316 -78q104 -67 104 -201q0 -162 -158 -265q-161 -106 -428 -106q-234 0 -495 150l-166 -147l129 403q200 -176 358 -176q140 0 140 125q0 70 -57 99q-41 21 -175 42
q-165 26 -240 84q-79 61 -79 172q0 156 126 249q130 95 353 95q232 0 379 -127zM562 25l-59 -129q47 18 131 18q156 0 250 -61t94 -156q0 -99 -89 -158q-92 -61 -251 -61q-169 0 -291 100l-59 -49l61 223q93 -141 197 -141q113 0 113 90q0 113 -152 113q-79 0 -147 -27
l121 358z" />
    <glyph glyph-name="Cacute" unicode="&#x106;" horiz-adv-x="1610" 
d="M1569 727l-107 -694l-41 284q-296 -352 -684 -352q-259 0 -456 201q-234 237 -234 545q0 428 334 651q211 141 498 141q260 0 456 -166l58 166l102 -547q-136 195 -350 195q-120 0 -193 -70.5t-73 -185.5q0 -121 90.5 -204t228.5 -83q164 0 371 119zM1275 2019l-600 -450
l176 450h424z" />
    <glyph glyph-name="cacute" unicode="&#x107;" horiz-adv-x="1186" 
d="M1169 -29l-110 222q-234 -216 -484 -216q-234 0 -386 138.5t-152 355.5q0 264 172 436q151 152 375 152q215 0 407 -162l41 176l58 -442q-77 86 -187 86q-74 0 -123 -50t-49 -126q0 -75 55.5 -129t131.5 -54q99 0 202 113zM1071 1591l-600 -450l176 450h424z" />
    <glyph glyph-name="Ccaron" unicode="&#x10c;" horiz-adv-x="1610" 
d="M1569 727l-107 -694l-41 284q-296 -352 -684 -352q-259 0 -456 201q-234 237 -234 545q0 428 334 651q211 141 498 141q260 0 456 -166l58 166l102 -547q-136 195 -350 195q-120 0 -193 -70.5t-73 -185.5q0 -121 90.5 -204t228.5 -83q164 0 371 119zM1228 2025l-221 -465
h-314l-229 465l379 -242z" />
    <glyph glyph-name="ccaron" unicode="&#x10d;" horiz-adv-x="1186" 
d="M1169 -29l-110 222q-234 -216 -484 -216q-234 0 -386 138.5t-152 355.5q0 264 172 436q151 152 375 152q215 0 407 -162l41 176l58 -442q-77 86 -187 86q-74 0 -123 -50t-49 -126q0 -75 55.5 -129t131.5 -54q99 0 202 113zM962 1649l-221 -465h-314l-229 465l379 -242z
" />
    <glyph glyph-name="dcroat" unicode="&#x111;" horiz-adv-x="1290" 
d="M1403 1217l-79 -201l-164 39l-9 -949l125 -141l-668 43q-258 17 -414.5 158t-156.5 352q0 226 132 378.5t320 152.5q243 0 412 -230l-62 313l-293 70l-57 89l323 -27l-24 120l-141 109l645 -53l-129 -58l-1 -146zM870 551q-105 220 -297 280q-43 -46 -43 -122
q0 -88 63.5 -150.5t147.5 -62.5q68 0 129 55z" />
    <glyph glyph-name="uni00AD" unicode="&#xad;" horiz-adv-x="780" 
d="M711 860l-27 -307l-551 -107l-63 426z" />
    <glyph glyph-name="macron" unicode="&#xaf;" 
d="M0 1944h1024v-213h-1024v213z" />
    <glyph glyph-name="uniF004" unicode="&#xf004;" horiz-adv-x="731" 
d="M193 709l118 460q-100 15 -159 60q-56 42 -56 94q0 61 74 107q79 49 195 49t195 -49q75 -46 75 -107q0 -49 -53 -117z" />
    <glyph glyph-name="Abreve" unicode="&#x102;" horiz-adv-x="1741" 
d="M1845 217l-872 -270l223 299l-63 221l-324 -25l-94 -258l141 -110l-948 -68l231 172l307 1194l-174 113l1176 -39l-274 -98l481 -1074zM1038 791l-139 399l-135 -492zM1130 1955q118 -66 118 -162q0 -95 -109 -161q-114 -70 -286 -70q-169 0 -284 71q-111 68 -111 160
q0 100 127 168q-4 -28 -4 -30q0 -60 75 -105q81 -47 199 -47q117 0 196 50t79 118v8z" />
    <glyph glyph-name="abreve" unicode="&#x103;" horiz-adv-x="1292" 
d="M1280 1030l-147 -67l30 -838l115 -88l-440 -55l75 305q-188 -305 -475 -305q-169 0 -286 139t-117 346q0 266 128 436q125 166 312 166q288 0 438 -301l-63 309zM580 821q-50 -58 -50 -143q0 -88 57.5 -147.5t141.5 -59.5q59 0 127 49q-129 237 -276 301zM923 1540
q118 -66 118 -162q0 -95 -109 -161q-114 -70 -286 -70q-169 0 -284 71q-111 68 -111 160q0 100 127 168q-4 -28 -4 -30q0 -60 75 -105q81 -47 199 -47q117 0 196 50t79 118v8z" />
    <glyph glyph-name="Aogonek" unicode="&#x104;" horiz-adv-x="1741" 
d="M1845 217l-872 -270l223 299l-63 221l-324 -25l-94 -258l141 -110l-948 -68l231 172l307 1194l-174 113l1176 -39l-274 -98l481 -1074zM1038 791l-139 399l-135 -492zM1175 179l205 -84q-15 -43 -15 -94q0 -70 39.5 -115t98.5 -45q118 0 215 158l125 -328l-86 90
q-139 -86 -279 -86q-153 0 -261 97t-108 233q0 93 66 174z" />
    <glyph glyph-name="aogonek" unicode="&#x105;" horiz-adv-x="1292" 
d="M1280 1030l-147 -67l30 -838l115 -88l-440 -55l75 305q-188 -305 -475 -305q-169 0 -286 139t-117 346q0 266 128 436q125 166 312 166q288 0 438 -301l-63 309zM580 821q-50 -58 -50 -143q0 -88 57.5 -147.5t141.5 -59.5q59 0 127 49q-129 237 -276 301zM892 117
l205 -84q-15 -43 -15 -94q0 -70 39.5 -115t98.5 -45q118 0 215 158l125 -328l-86 90q-139 -86 -279 -86q-153 0 -261 97t-108 233q0 93 66 174z" />
    <glyph glyph-name="Dcaron" unicode="&#x10e;" horiz-adv-x="1587" 
d="M164 1321l-273 182l1037 -110q285 -31 448.5 -201.5t163.5 -435.5q0 -329 -232.5 -520.5t-674.5 -221.5l-742 -49l431 160zM582 489q280 152 280 394q0 206 -196 344zM1101 2025l-221 -465h-314l-229 465l379 -242z" />
    <glyph glyph-name="dcaron" unicode="&#x10f;" horiz-adv-x="1885" 
d="M1292 1440l-129 -58l-12 -1276l125 -141l-668 43q-258 17 -414.5 158t-156.5 352q0 226 132 378.5t320 152.5q243 0 412 -230l-113 565l-141 109zM573 831q-43 -46 -43 -122q0 -88 63.5 -150.5t147.5 -62.5q68 0 129 55q-105 220 -297 280zM1424 709l118 460
q-100 15 -159 60q-56 42 -56 94q0 61 74 107q79 49 195 49t195 -49q75 -46 75 -107q0 -49 -53 -117z" />
    <glyph glyph-name="Eogonek" unicode="&#x118;" horiz-adv-x="1661" 
d="M1626 616l-90 -661l-1647 72l433 151l-154 1098l-279 108l1567 107l98 -459l-163 168l-482 -2l-73 -305l344 80l102 157l39 -692l-109 172l-305 41l-121 -325l574 -72zM826 80l205 -84q-15 -43 -15 -94q0 -70 39.5 -115t98.5 -45q118 0 215 158l125 -328l-86 90
q-139 -86 -279 -86q-153 0 -261 97t-108 233q0 93 66 174z" />
    <glyph glyph-name="eogonek" unicode="&#x119;" horiz-adv-x="1294" 
d="M1278 -23l-90 166q-261 -166 -541 -166q-279 0 -444.5 138t-165.5 364q0 252 174 426q162 162 418 162q245 0 404 -107q155 -104 155 -262t-142 -266q-146 -110 -368 -110q-106 0 -191 34q183 -125 371 -125q240 0 383 203zM283 690q68 -55 163 -55q80 0 129.5 46
t49.5 118q0 68 -41 116q-215 -33 -301 -225zM443 68l205 -84q-15 -43 -15 -94q0 -70 39.5 -115t98.5 -45q118 0 215 158l125 -328l-86 90q-139 -86 -279 -86q-153 0 -261 97t-108 233q0 93 66 174z" />
    <glyph glyph-name="Ecaron" unicode="&#x11a;" horiz-adv-x="1661" 
d="M1626 616l-90 -661l-1647 72l433 151l-154 1098l-279 108l1567 107l98 -459l-163 168l-482 -2l-73 -305l344 80l102 157l39 -692l-109 172l-305 41l-121 -325l574 -72zM1201 2027l-221 -465h-314l-229 465l379 -242z" />
    <glyph glyph-name="ecaron" unicode="&#x11b;" horiz-adv-x="1294" 
d="M1278 -23l-90 166q-261 -166 -541 -166q-279 0 -444.5 138t-165.5 364q0 252 174 426q162 162 418 162q245 0 404 -107q155 -104 155 -262t-142 -266q-146 -110 -368 -110q-106 0 -191 34q183 -125 371 -125q240 0 383 203zM283 690q68 -55 163 -55q80 0 129.5 46
t49.5 118q0 68 -41 116q-215 -33 -301 -225zM1025 1649l-221 -465h-314l-229 465l379 -242z" />
    <glyph glyph-name="Lacute" unicode="&#x139;" horiz-adv-x="1479" 
d="M1466 -88l-131 154l-1351 -74l184 129l49 1139l-272 81l977 107l-256 -186l170 -920l358 182l115 264zM1011 2015l-600 -450l176 450h424z" />
    <glyph glyph-name="lacute" unicode="&#x13a;" horiz-adv-x="791" 
d="M793 8l-832 -41l229 131l-18 1149l-207 37l785 221l-183 -1415zM927 2012l-600 -450l176 450h424z" />
    <glyph glyph-name="Lcaron" unicode="&#x13d;" horiz-adv-x="1479" 
d="M1466 -88l-131 154l-1351 -74l184 129l49 1139l-272 81l977 107l-256 -186l170 -920l358 182l115 264zM1035 709l118 460q-100 15 -159 60q-56 42 -56 94q0 61 74 107q79 49 195 49t195 -49q75 -46 75 -107q0 -49 -53 -117z" />
    <glyph glyph-name="lcaron" unicode="&#x13e;" horiz-adv-x="1394" 
d="M793 8l-832 -41l229 131l-18 1149l-207 37l785 221l-183 -1415zM911 709l118 460q-100 15 -159 60q-56 42 -56 94q0 61 74 107q79 49 195 49t195 -49q75 -46 75 -107q0 -49 -53 -117z" />
    <glyph glyph-name="Nacute" unicode="&#x143;" horiz-adv-x="1929" 
d="M1954 1360l-156 -68l-160 -1171l226 -90l-523 -41l-727 1034l250 -938l264 -145l-1116 104l170 115l72 1102l-242 98l840 119l514 -1119l-90 971l-162 109zM1511 2019l-600 -450l176 450h424z" />
    <glyph glyph-name="nacute" unicode="&#x144;" horiz-adv-x="1286" 
d="M1233 18l-559 -36q112 127 112 264q0 92 -43.5 150.5t-107.5 58.5q-74 0 -124 -60.5t-50 -156.5q0 -128 80 -205l-549 -64l125 131l43 822l-164 82l522 57l-121 -244q254 242 471 242q166 0 265.5 -109.5t99.5 -292.5q0 -292 -201 -567zM1163 1591l-600 -450l176 450h424
z" />
    <glyph glyph-name="Ncaron" unicode="&#x147;" horiz-adv-x="1929" 
d="M1954 1360l-156 -68l-160 -1171l226 -90l-523 -41l-727 1034l250 -938l264 -145l-1116 104l170 115l72 1102l-242 98l840 119l514 -1119l-90 971l-162 109zM1398 2025l-221 -465h-314l-229 465l379 -242z" />
    <glyph glyph-name="ncaron" unicode="&#x148;" horiz-adv-x="1286" 
d="M1233 18l-559 -36q112 127 112 264q0 92 -43.5 150.5t-107.5 58.5q-74 0 -124 -60.5t-50 -156.5q0 -128 80 -205l-549 -64l125 131l43 822l-164 82l522 57l-121 -244q254 242 471 242q166 0 265.5 -109.5t99.5 -292.5q0 -292 -201 -567zM1083 1649l-221 -465h-314
l-229 465l379 -242z" />
    <glyph glyph-name="Ohungarumlaut" unicode="&#x150;" horiz-adv-x="1712" 
d="M1665 707q0 -217 -109 -375q-115 -169 -317.5 -270t-431.5 -101q-242 0 -424 123q-160 108 -248 269.5t-88 348.5q0 292 215 504q270 267 660 267q237 0 409 -117q153 -104 243.5 -279t90.5 -370zM905 1229q-59 -88 -59 -189q0 -90 68.5 -155.5t162.5 -65.5
q73 0 140 39.5t96 102.5q-147 255 -408 268zM1668 2012l-600 -450l176 450h424zM1145 2012l-600 -450l177 450h423z" />
    <glyph glyph-name="ohungarumlaut" unicode="&#x151;" horiz-adv-x="1233" 
d="M1196 526q0 -162 -83.5 -285.5t-216 -194.5t-280.5 -71q-252 0 -415.5 152t-163.5 383q0 246 166.5 402.5t429.5 156.5q250 0 406.5 -153t156.5 -390zM266 682q59 -74 162 -74q91 0 154 56t63 137q0 63 -41 104q-243 -68 -338 -223zM1426 1591l-600 -450l176 450h424z
M903 1591l-600 -450l177 450h423z" />
    <glyph glyph-name="Racute" unicode="&#x154;" horiz-adv-x="1679" 
d="M1665 84l-670 -225l80 151l-379 461q-46 5 -98 16l29 -356l225 -199l-846 95l141 100l146 1094l-316 137l768 88q179 20 263 20q618 0 618 -491q0 -406 -532 -502zM610 780q69 -39 135 -39q42 0 74.5 47t32.5 107q0 144 -203 231zM1373 2016l-600 -450l176 450h424z" />
    <glyph glyph-name="racute" unicode="&#x155;" horiz-adv-x="1208" 
d="M1241 1055l-158 -635q-139 170 -331 170q-125 0 -204 -81t-79 -204q0 -148 158 -291l-641 -34l114 94l56 884l-158 66l506 27l-84 -228q222 232 418 232q167 0 264 -129zM1071 1591l-600 -450l176 450h424z" />
    <glyph glyph-name="Rcaron" unicode="&#x158;" horiz-adv-x="1679" 
d="M1665 84l-670 -225l80 151l-379 461q-46 5 -98 16l29 -356l225 -199l-846 95l141 100l146 1094l-316 137l768 88q179 20 263 20q618 0 618 -491q0 -406 -532 -502zM610 780q69 -39 135 -39q42 0 74.5 47t32.5 107q0 144 -203 231zM1318 2031l-221 -465h-314l-229 465
l379 -242z" />
    <glyph glyph-name="rcaron" unicode="&#x159;" horiz-adv-x="1208" 
d="M1241 1055l-158 -635q-139 170 -331 170q-125 0 -204 -81t-79 -204q0 -148 158 -291l-641 -34l114 94l56 884l-158 66l506 27l-84 -228q222 232 418 232q167 0 264 -129zM1053 1649l-221 -465h-314l-229 465l379 -242z" />
    <glyph glyph-name="Sacute" unicode="&#x15a;" horiz-adv-x="1690" 
d="M1262 1458l170 -536q-285 247 -431 247q-112 0 -112 -108q0 -125 262 -205q273 -83 379 -158q131 -93 131 -241q0 -215 -210 -356q-215 -144 -556 -144q-357 0 -655 240v-240l-179 535q257 -209 463 -209q224 0 224 170q0 87 -67 135q-49 35 -192 80q-473 148 -473 426
q0 174 152 287q156 116 410 116q322 0 645 -242zM1123 2015l-600 -450l176 450h424z" />
    <glyph glyph-name="sacute" unicode="&#x15b;" horiz-adv-x="1251" 
d="M1116 1067l-190 -362q-153 137 -287 137q-131 0 -131 -105q0 -65 80 -86q44 -12 233 -24q217 -15 316 -78q104 -67 104 -201q0 -162 -158 -265q-161 -106 -428 -106q-234 0 -495 150l-166 -147l129 403q200 -176 358 -176q140 0 140 125q0 70 -57 99q-41 21 -175 42
q-165 26 -240 84q-79 61 -79 172q0 156 126 249q130 95 353 95q232 0 379 -127zM1088 1591l-600 -450l176 450h424z" />
    <glyph glyph-name="uni0162" unicode="&#x162;" horiz-adv-x="1606" 
d="M1638 1493l-485 -948l-63 723l-279 -1108l424 -203l-916 49l295 92l-335 1190l-95 -874l-196 968zM731 25l-59 -129q47 18 131 18q156 0 250 -61t94 -156q0 -99 -89 -158q-92 -61 -251 -61q-169 0 -291 100l-59 -49l61 223q93 -141 197 -141q113 0 113 90q0 113 -152 113
q-79 0 -147 -27l121 358z" />
    <glyph glyph-name="uni0163" unicode="&#x163;" horiz-adv-x="1255" 
d="M1247 -29l-149 168q-214 -168 -453 -168q-190 0 -304 110t-114 294q0 106 41 327l-116 -14l-107 -182l-37 610l137 -137l191 6q54 198 119 371l-256 98l876 39l-248 -156q-41 -181 -65 -333l229 10l156 192l-25 -565l-141 164l-250 -35q-20 -164 -20 -262
q0 -209 149 -209q158 0 314 174zM585 25l-59 -129q47 18 131 18q156 0 250 -61t94 -156q0 -99 -89 -158q-92 -61 -251 -61q-169 0 -291 100l-59 -49l61 223q93 -141 197 -141q113 0 113 90q0 113 -152 113q-79 0 -147 -27l121 358z" />
    <glyph glyph-name="Tcaron" unicode="&#x164;" horiz-adv-x="1606" 
d="M1638 1493l-485 -948l-63 723l-279 -1108l424 -203l-916 49l295 92l-335 1190l-95 -874l-196 968zM1108 2027l-221 -465h-314l-229 465l379 -242z" />
    <glyph glyph-name="tcaron" unicode="&#x165;" horiz-adv-x="1784" 
d="M1247 -29l-149 168q-214 -168 -453 -168q-190 0 -304 110t-114 294q0 106 41 327l-116 -14l-107 -182l-37 610l137 -137l191 6q54 198 119 371l-256 98l876 39l-248 -156q-41 -181 -65 -333l229 10l156 192l-25 -565l-141 164l-250 -35q-20 -164 -20 -262
q0 -209 149 -209q158 0 314 174zM1298 709l118 460q-100 15 -159 60q-56 42 -56 94q0 61 74 107q79 49 195 49t195 -49q75 -46 75 -107q0 -49 -53 -117z" />
    <glyph glyph-name="Uring" unicode="&#x16e;" horiz-adv-x="1726" 
d="M1698 1434l-355 -195q330 -226 330 -575q0 -176 -100 -316q-125 -174 -339.5 -279.5t-449.5 -105.5q-294 0 -511.5 219t-217.5 508q0 365 441 647l-414 54l850 114q-309 -235 -309 -491q0 -121 81 -200t201 -79q111 0 184.5 83.5t73.5 209.5q0 174 -141 303zM1356 1802
q0 -96 -107 -162q-111 -69 -286 -69q-176 0 -287 69q-106 65 -106 162q0 95 107 161q111 69 286 69t286 -68q107 -65 107 -162zM1178 1802q0 50 -58 84q-62 37 -157 37q-96 0 -155.5 -35t-59.5 -86t59.5 -87t155.5 -36t157 37q58 35 58 86z" />
    <glyph glyph-name="uring" unicode="&#x16f;" horiz-adv-x="1352" 
d="M1300 1063l-249 -135q243 -186 243 -428q0 -191 -139 -328q-204 -201 -530 -201q-250 0 -409 134t-159 337q0 272 244 506l-250 49l580 66q-133 -148 -133 -299q0 -184 151 -184q82 0 135.5 57.5t53.5 148.5q0 110 -86 199zM1089 1374q0 -96 -107 -162q-111 -69 -286 -69
q-176 0 -287 69q-106 65 -106 162q0 95 107 161q111 69 286 69t286 -68q107 -65 107 -162zM911 1374q0 50 -58 84q-62 37 -157 37q-96 0 -155.5 -35t-59.5 -86t59.5 -87t155.5 -36t157 37q58 35 58 86z" />
    <glyph glyph-name="Uhungarumlaut" unicode="&#x170;" horiz-adv-x="1726" 
d="M1698 1434l-355 -195q330 -226 330 -575q0 -176 -100 -316q-125 -174 -339.5 -279.5t-449.5 -105.5q-294 0 -511.5 219t-217.5 508q0 365 441 647l-414 54l850 114q-309 -235 -309 -491q0 -121 81 -200t201 -79q111 0 184.5 83.5t73.5 209.5q0 174 -141 303zM1688 2013
l-600 -450l176 450h424zM1165 2013l-600 -450l177 450h423z" />
    <glyph glyph-name="uhungarumlaut" unicode="&#x171;" horiz-adv-x="1352" 
d="M1300 1063l-249 -135q243 -186 243 -428q0 -191 -139 -328q-204 -201 -530 -201q-250 0 -409 134t-159 337q0 272 244 506l-250 49l580 66q-133 -148 -133 -299q0 -184 151 -184q82 0 135.5 57.5t53.5 148.5q0 110 -86 199zM1434 1591l-600 -450l176 450h424zM911 1591
l-600 -450l177 450h423z" />
    <glyph glyph-name="Zacute" unicode="&#x179;" horiz-adv-x="1608" 
d="M1583 1376l-1012 -1102l764 218l221 331l-102 -780l-1524 -109l811 1223l-454 -53l-125 -344l-133 737zM1306 2003l-600 -450l176 450h424z" />
    <glyph glyph-name="zacute" unicode="&#x17a;" horiz-adv-x="1247" 
d="M1251 981l-716 -750l512 181l153 241l-53 -590l-1145 -104l528 838l-354 -72l-117 -225l-41 565zM1071 1591l-600 -450l176 450h424z" />
    <glyph glyph-name="Zdotaccent" unicode="&#x17b;" horiz-adv-x="1608" 
d="M1583 1376l-1012 -1102l764 218l221 331l-102 -780l-1524 -109l811 1223l-454 -53l-125 -344l-133 737zM1133 1739q0 -73 -84 -123q-89 -53 -231 -53t-231 52q-84 50 -84 124q0 75 85 126q90 54 230 54t230 -54q85 -51 85 -126z" />
    <glyph glyph-name="zdotaccent" unicode="&#x17c;" horiz-adv-x="1247" 
d="M1251 981l-716 -750l512 181l153 241l-53 -590l-1145 -104l528 838l-354 -72l-117 -225l-41 565zM966 1333q0 -73 -84 -123q-89 -53 -231 -53t-231 52q-84 50 -84 124q0 75 85 126q90 54 230 54t230 -54q85 -51 85 -126z" />
    <glyph glyph-name="shade" unicode="&#x2592;" horiz-adv-x="2039" 
d="M677 -179v-331h-332v331h332zM1358 -179v-331h-331v331h331zM2039 -179v-331h-331v331h331zM1022 166v-340h-340v340h340zM1703 166v-340h-340v340h340zM340 166v-340h-340v340h340zM1358 503v-331h-331v331h331zM677 503v-331h-332v331h332zM2039 503v-331h-331v331h331
zM340 848v-340h-340v340h340zM1703 848v-340h-340v340h340zM1022 848v-340h-340v340h340zM1358 1183v-330h-331v330h331zM2039 1183v-330h-331v330h331zM677 1183v-330h-332v330h332zM1022 1529v-340h-340v340h340zM1703 1529v-340h-340v340h340zM340 1529v-340h-340v340
h340z" />
    <glyph glyph-name="glyph282" horiz-adv-x="588" 
d="M1083 1399l-286 -74l-676 -1233l147 -123l-807 131l291 84l764 1159l-199 152z" />
    <glyph glyph-name="glyph283" horiz-adv-x="2015" 
d="M1935 1298q0 -64 -93 -109q-100 -48 -263 -48q-164 0 -263 47q-93 44 -93 110t93 111q100 47 263 47q162 0 262 -47q94 -45 94 -111zM2060 1047l-225 -89l-70 -852l273 -108l-998 -37l322 113l-94 647l-477 -74q35 -259 118 -545l199 -90l-891 -39l229 168
q-33 143 -102 445l-117 -17l-137 -194l-74 635l146 -152l131 12q-23 152 -23 246q0 383 416 383q192 0 375 -108l219 108l-233 -399q-50 86 -148 86q-75 0 -105 -59.5t-30 -194.5v-17z" />
    <glyph glyph-name="glyph284" horiz-adv-x="1952" 
d="M1911 1501l-182 -1411l223 -82l-830 -37l230 127l-27 1002q-169 86 -313 86q-132 0 -190 -61t-58 -199v-39l233 10l205 174l-82 -563l-174 172l-160 -25q37 -261 123 -553l199 -92l-891 -39l229 170q-61 241 -102 447l-113 -19l-141 -194l-74 635l146 -152l133 6
q-25 190 -25 240q0 193 138 295t401 102q264 0 510 -135z" />
  </font>
</defs>
</svg>
